<svg height="512" viewBox="0 0 2362 2362" width="512" xmlns="http://www.w3.org/2000/svg"><path id="S_" d="m1615.36 421.392q-65.025-115.032-170.03-168.375-95.025-48.328-253.38-56.672-35.01-1.664-68.36-1.672-275.059 0-426.748 130.031-165.048 143.367-171.7 430.078-3.327 208.383 301.735 475.1 23.343 28.35 51.672 58.36-258.375 1.65-398.407 1.65 1.641 28.365 3.329 90.02 6.656 450.09 253.39 575.12 116.672 211.695 378.4 211.71 70.02 0 150.03-15 286.725-53.355 411.75-185.04 118.365-125.04 138.36-376.75 3.33-34.98 3.33-63.34 0-115.035-45.84-193.37t-159.191-163.362l-10.01-8.35q-41.685-68.34-133.36-141.69l411.75-128.354q-73.365-366.75-266.72-470.094zm-375.07 445.078q1.65-8.321 10-15l6.66 16.672 81.69-26.672q9.975 8.343 16.67 25l40 100.031q-103.365-68.343-155.02-100.031zm45-60-51.67-126.7q-31.68-63.329-90.01-63.344-23.355 0-53.35 8.344-65.01 20.016-65.01 70.015 0 16.665 5 38.329 18.33 66.7 141.69 148.375 123.345 81.679 245.04 161.684 105.03 78.375 145.03 146.71 40.02 68.34 40.02 168.36 0 28.35-3.34 61.68-18.33 233.4-125.02 346.74-113.37 118.35-385.08 170.03-71.7 13.335-135.03 13.34-211.71 0-318.39-150.03-75.024-106.68-95.016-286.73-5.016-88.335-10.016-176.71l360.079 1.68q9.984 161.715 115.013 178.37 45-4.995 73.35-32.5t28.34-60.86q0-30-26.67-51.67-235.058-186.7-308.393-260.05-200.038-201.7-196.7-355.076 11.668-511.757 546.783-511.768 31.65 0 66.67 1.672 211.71 11.672 311.73 101.687 108.36 96.679 156.7 341.734z" fill="rgb(0,0,0)" fill-rule="evenodd" data-name="S "/></svg>