<svg height="512" viewBox="0 0 2362 2362" width="512" xmlns="http://www.w3.org/2000/svg"><path id="U" d="m1948.01 389.015-160.04 11.672q-5.01-91.687-6.67-178.375l-601.78 45.016q4.995 66.68 28.34 433.406 15 221.718 15 331.736 0 58.35-3.34 105.03-8.34 130.035-41.67 188.37-33.36 58.365-100.02 65-33.345-146.67-33.34-425.074 0-103.359 6.67-286.718 6.66-228.375 8.33-300.063l-171.7 23.328q3.327-115.008 5.015-190.031l-530.112 71.672q0 568.454 6.656 721.816 11.671 340.08 56.688 515.11 73.335 278.385 258.39 388.4 156.679 255.045 511.763 240.05 463.41-18.33 651.8-265.05 151.68-200.055 151.69-603.45 0-111.675-11.66-263.39-36.7-523.433-40.01-628.455zm-188.38 320.063q23.34 276.726 23.34 415.082 0 375.09-140.03 560.11-176.715 230.025-615.12 248.39-306.73 13.3-446.752-181.71-120.047-168.375-151.7-556.78-16.687-208.35-16.672-866.842l428.422-58.344q-1.687 50.016-6.672 258.39-6.657 170.04-6.656 271.719 0 293.391 40 443.427 50.015 191.715 173.373 198.37 131.67 6.675 185.03-100.02 46.665-93.345 46.67-306.73 0-111.68-15-323.391-23.34-353.389-25-396.75l500.1-38.343q3.33 135.046 26.67 433.422z" fill="rgb(0,0,0)" fill-rule="evenodd"/></svg>