<svg height="512" viewBox="0 0 2362 2362" width="512" xmlns="http://www.w3.org/2000/svg"><path d="m1688.09 461.816q-138.375-243.375-533.43-243.375-238.388 0-690.143 90.016l-50 1668.673 171.683-20.02-5 186.71 603.456-71.68-8.33-531.78q393.394-46.66 565.114-148.36 206.715-123.345 206.72-376.73 0-88.36-23.35-193.375-56.67-260.062-236.72-360.079zm43.35 385.084q0 233.392-198.38 343.405-168.375 93.36-573.434 138.36l8.328 531.77-501.766 60.01 48.344-1570.316q418.407-83.345 641.8-83.344 241.71 0 371.73 90.016 135.03 95.016 181.71 308.39 21.645 100.032 21.67 181.7zm-716.81-158.36q-43.365 0-93.348 5l21.672 296.719q178.359-46.663 206.706-61.672 65.01-35.016 65.01-130.031 0-110.016-200.04-110.016z" fill-rule="evenodd"/></svg>