<svg height="512" viewBox="0 0 2362 2362" width="512" xmlns="http://www.w3.org/2000/svg"><path d="m2028.86 844.712q-93.345-190.032-260.05-316.735-120.045-158.343-291.73-246.718-178.365-91.688-380.06-91.688-358.412 0-610.129 266.735-251.718 266.718-251.718 640.124 0 223.38 96.687 420.08 95.016 190.035 260.047 316.73 121.688 158.355 293.393 246.72 178.353 91.665 378.4 91.67 358.41 0 610.96-266.72t252.56-641.79q0-221.7-98.36-418.408zm-356.73 859.348q-238.395 250.845-575.11 250.87-336.756 0-574.3-250.87-237.563-250.875-237.546-607.63 0-355.077 237.546-605.953 237.563-250.875 574.3-250.89 336.72 0 575.11 250.89 238.35 250.875 238.37 605.953 0 356.745-238.37 607.63zm-498.44-964.379q-156.705 0-275.049 123.359-113.367 116.7-113.359 268.39 0 128.37 86.687 211.7 81.657 80.025 203.371 80.02 158.355 0 276.72-121.69 111.69-118.35 111.69-268.37 0-130.036-84.19-211.722t-205.87-81.687zm240.05 293.409q0 130.02-98.35 233.37-103.35 106.695-238.39 106.69a260.74 260.74 0 0 1 -66.67-8.34 280.482 280.482 0 0 1 -8.34-68.35q0-130.005 100.85-234.2t237.55-104.189a315.525 315.525 0 0 1 65.02 6.656 281.652 281.652 0 0 1 8.33 68.363z" fill-rule="evenodd"/></svg>