<svg height="512" viewBox="0 0 2362 2362" width="512" xmlns="http://www.w3.org/2000/svg"><path id="I" d="m1548.18 523.691q-52.5-75.845-137.52-114.188-38.34-90-123.36-144.187-85.035-54.187-188.37-54.188-138.375 0-237.55 91.688t-99.187 223.375q0 93.351 52.5 169.2t139.207 114.191a227.756 227.756 0 0 0 31.672 58.343l-145.032 3.328-51.676 1110.217h175.036l-8.328 166.71 593.452 3.34 10-1125.24-168.37 3.35v-45.017q93.345-34.992 151.7-114.188 58.335-79.171 58.34-177.531-.004-93.351-52.514-169.203zm-247.55 190.031q-83.34 77.532-201.7 77.516-118.365 0-202.55-77.516t-84.172-187.531q0-110.016 84.172-187.547 84.188-77.508 202.55-77.516t201.7 77.516q83.34 77.532 83.36 187.547 0 110.016-83.36 187.531zm31.67 1221.078-491.764-3.33 46.688-1011.87 453.426-8.328z" fill="rgb(0,0,0)" fill-rule="evenodd"/></svg>