<svg height="512" viewBox="0 0 2362 2362" width="512" xmlns="http://www.w3.org/2000/svg"><path d="m1829.48 1472.36q-80.01 23.34-151.69 35.02l-15.01-201.72q-170.04 46.68-301.72 46.68-93.375 0-163.38-23.34-11.67-38.34-11.65-83.34-1.695-186.705 118.36-261.737 90-54.984 270.04-55 43.335 0 110.02 3.328 88.365 5.016 101.69 5l25.01-461.75a1714.016 1714.016 0 0 0 -173.37-48.344l6.67-118.359q-230.07-75-416.75-75.016-373.407 0-565.11 290.063-156.704 238.383-173.375 638.455-23.343 516.765 271.719 698.47 165.023 266.715 590.126 266.72 58.335 0 120.01-5 265.065-33.33 401.75-56.68zm-650.12 438.42q-673.483 0-640.129-746.81 16.664-386.742 163.359-615.125 175.032-271.711 516.77-271.719 168.375 0 373.42 66.672l-20.02 375.078q-3.33 0-66.67-5-55.035-3.328-98.36-3.328-441.75 0-438.421 368.4 1.664 160.037 106.691 245.052 105.015 85.035 283.39 85.02 120.015 0 258.39-38.35l35 486.77q-330.075 53.34-473.42 53.34z" fill-rule="evenodd"/></svg>