<svg enable-background="new 0 0 64 64" viewBox="0 0 64 64" xmlns="http://www.w3.org/2000/svg"><path d="m57.1884766 61v-58c0-.5522461-.4472656-1-1-1h-48.3769532c-.5527344 0-1 .4477539-1 1v58c0 .5522461.4472656 1 1 1h48.3769531c.5527344 0 1.0000001-.4477539 1.0000001-1zm-2-1h-46.3769532v-56h46.3769531v56z"/><path d="m12.4619141 49.9033203h6.3769531 26.3222656 6.3769531c.5527344 0 1-.4477539 1-1v-41.1289062c0-.5522461-.4472656-1-1-1h-39.0761718c-.5527344 0-1 .4477539-1 1v41.1289062c0 .5522461.4472656 1 1 1zm7.3769531-2v-4.6616211c0-6.7055664 5.4550781-12.1611328 12.1611328-12.1611328s12.1611328 5.4555664 12.1611328 12.1611328v4.6616211zm-6.3769531-39.1289062h37.0761719v39.1289062h-4.3769531v-4.6616211c0-6.1959839-4.0058594-11.4620972-9.55896-13.3783569 2.8428345-1.6110229 4.7689209-4.6593628 4.7689209-8.1538696 0-5.1669922-4.2041016-9.3706055-9.3710938-9.3706055s-9.3710938 4.2036133-9.3710938 9.3706055c0 3.4945068 1.9260864 6.5428467 4.7689209 8.1538696-5.5531006 1.9162598-9.55896 7.182373-9.55896 13.3783569v4.6616211h-4.3769531v-39.1289062zm18.5380859 20.3061523c-4.0644531 0-7.3710938-3.3066406-7.3710938-7.3710938 0-4.0639648 3.3066406-7.3706055 7.3710938-7.3706055s7.3710938 3.3066406 7.3710938 7.3706055c0 4.0644532-3.3066407 7.3710938-7.3710938 7.3710938z"/><path d="m42.4833984 11.4194336h5.1943359v5.4516602c0 .5522461.4472656 1 1 1s1-.4477539 1-1v-6.4516602c0-.5522461-.4472656-1-1-1h-6.1943359c-.5527344 0-1 .4477539-1 1s.4472657 1 1 1z"/><path d="m49.3798828 19.449707c-.0400391-.0400391-.0898438-.0800781-.1503906-.1201172-.0498047-.0395508-.109375-.0698242-.1699219-.0898438-.0595703-.0297851-.1201172-.0498046-.1894531-.0600585-.1298828-.0297852-.2607422-.0297852-.390625 0-.0595703.0102539-.1298828.0302734-.1894531.0600586-.0605469.0200195-.1103516.050293-.1699219.0898438-.0507812.0400391-.1005859.0800781-.1503906.1201172-.0898438.1000976-.1601563.2099609-.2197266.3300781-.0498047.1201172-.0703125.25-.0703125.3798828 0 .2602539.1005859.5200195.2900391.7099609.0498047.0400391.0996094.090332.1503906.1201172.0595703.0400391.109375.0703125.1699219.0898438.0595703.0302734.1298828.050293.1894531.0600586.0703125.0102539.1298828.0200195.2001953.0200195.0605469 0 .1298828-.0097656.1904297-.0200195.0693359-.0097657.1298828-.0297852.1894531-.0600587.0605469-.0195312.1201172-.0498047.1699219-.0898438.0605469-.0297852.1103516-.0800781.1503906-.1201172.1894531-.1899414.2998047-.449707.2998047-.7099609 0-.1298828-.0302734-.2597656-.0800781-.3798828s-.1201172-.2299804-.2197266-.3300781z"/></svg>