<svg viewBox="0 0 100 100" xmlns="http://www.w3.org/2000/svg"><g fill="none" stroke="#000" stroke-linecap="round" stroke-linejoin="round" stroke-width="3"><path d="m88.54 88.61h-76.85v-48.79l38.42 20.42 38.43-20.42z"/><path d="m80.54 34.16 8 5.66"/><path d="m43.18 17.53 6.93-4.91 6.94 4.91"/><path d="m11.69 39.82 7.95-5.63"/><path d="m19.64 44.07v-26.54h60.9v26.54"/><path d="m50.72 49.53a11.44 11.44 0 1 1 11.44-11.44 9.86 9.86 0 0 1 -2.16 6.65c-1.86 2-7.26 1.65-6.56-1.75l2.35-10.05"/><path d="m55.13 35.91s-.46-3.52-5.16-3.07-6.45 7.45-3.4 9.85 7-.3 7-.3"/></g></svg>