<svg enable-background="new 0 0 511.977 511.977" height="512" viewBox="0 0 511.977 511.977" width="512" xmlns="http://www.w3.org/2000/svg"><path d="m507.711 193.553-36.619-54.685c10.706-10.255 5.205-29.848-5.894-37.141l-33.893-22.274-21.908-32.716c-8.142-12.159-25.403-14.669-37.061-6.039l-54.844-36.044c-11.797-7.754-27.89-4.338-35.872 7.616l-19.868 29.76c-5.372 8.045 7.105 16.376 12.475 8.328l19.867-29.758c3.422-5.124 10.224-6.654 15.159-3.41l49.567 32.575-99.687 66.876-20.313-13.251 15.486-23.196c5.372-8.045-7.105-16.375-12.475-8.328l-68.18 102.121-161.964 108.658c-11.961 8.023-15.29 24.111-7.421 35.863l36.506 54.515c-8.491 11.97-6.634 29.003 6.008 37.311l32.456 21.33c.396.26.811.463 1.233.64l22.112 33.02c8.146 12.165 25.401 14.641 37.061 6.039l54.844 36.043c11.792 7.751 28.111 4.007 35.872-7.616l105.703-158.327c.545-.816.903-1.701 1.094-2.605l163.135-109.442c11.961-8.023 15.29-24.111 7.421-35.863zm-50.752-79.291c2.3 1.511 3.872 3.851 4.428 6.587.249 1.226.273 2.466.104 3.682l-8.72-13.021zm-226.467 1.604 15.108 9.855-39.281 26.353zm-175.474 281.933c-2.3-1.511-3.872-3.851-4.428-6.587-.249-1.226-.273-2.466-.104-3.682l8.72 13.021zm162.865 93.662c-3.422 5.125-10.223 6.657-15.159 3.41l-49.567-32.575 30.01-20.133c8.034-5.39-.321-17.843-8.357-12.457l-44.606 29.925c-2.496 1.675-5.465 2.306-8.359 1.771-2.822-.52-5.238-2.091-6.801-4.424l-98.314-146.816c-3.271-4.885-1.785-11.641 3.313-15.061l267.081-179.175 110.545 164.271-194.68 130.604c-8.034 5.39.321 17.844 8.357 12.457l94.312-63.271zm274.051-274.502-81.808 54.882-110.545-164.271 82.193-55.14c4.823-3.237 11.841-2.304 15.16 2.652l21.8 32.556c.362.852.884 1.641 1.555 2.322l74.958 111.939c3.272 4.884 1.786 11.64-3.313 15.06z"/><path d="m375.737 107.789c-2.307-3.44-6.966-4.357-10.406-2.053-3.44 2.308-4.359 6.967-2.053 10.406l.278.415c1.447 2.158 3.819 3.324 6.236 3.324 1.437 0 2.888-.412 4.17-1.271 3.44-2.308 4.359-6.967 2.053-10.406z"/><path d="m406.347 153.501c-2.305-3.442-6.966-4.364-10.405-2.058-3.441 2.305-4.362 6.964-2.058 10.405l.632.943c1.446 2.16 3.82 3.327 6.238 3.327 1.435 0 2.886-.411 4.167-1.27 3.441-2.305 4.362-6.964 2.058-10.405z"/><path d="m437.307 199.736c-2.307-3.44-6.966-4.356-10.406-2.053-3.44 2.308-4.359 6.967-2.053 10.406l.278.415c1.447 2.158 3.819 3.324 6.236 3.324 1.437 0 2.888-.412 4.17-1.271 3.44-2.308 4.359-6.967 2.053-10.406z"/><path d="m287.473 256.058-62.416 41.872c-8.087 5.425.428 17.773 8.357 12.457l62.416-41.872c8.034-5.39-.321-17.845-8.357-12.457z"/><path d="m205.647 268.621 94.019-63.073c8.034-5.39-.322-17.845-8.357-12.457l-94.019 63.073c-8.087 5.426.428 17.773 8.357 12.457z"/><path d="m192.008 325.72-.227-.339s0 0 0 0l-43.018-64.241c-2.864-4.28-9.316-4.386-12.321-.204l-46.152 64.212c-1.827 2.541-1.884 5.949-.142 8.55l32.615 48.707c-1.603.566-3.152 1.318-4.602 2.29-9.197 6.171-11.745 18.558-5.681 27.612 6.033 9.012 18.745 11.241 27.695 5.238 9.196-6.17 11.744-18.557 5.681-27.612-.003-.005-.007-.009-.01-.013l-40.34-60.244 36.807-51.21 26.375 39.386c-1.603.566-3.153 1.318-4.602 2.29-9.197 6.171-11.745 18.558-5.681 27.612 6.033 9.012 18.745 11.241 27.695 5.238 9.08-6.092 11.662-18.238 5.891-27.261zm-60.189 79.367c-1.159.777-2.528 1.068-3.858.826-1.257-.231-2.328-.925-3.017-1.954-1.466-2.188-.76-5.243 1.573-6.809.893-.599 1.91-.91 2.938-.91.307 0 .615.028.921.084 1.257.231 2.328.925 3.016 1.953 0 0 .001 0 .001.001 1.465 2.189.759 5.244-1.574 6.809zm45.924-64.552c-1.158.777-2.528 1.068-3.858.826-1.257-.231-2.328-.925-3.017-1.954-1.466-2.188-.76-5.243 1.573-6.809.893-.599 1.91-.91 2.938-.91.307 0 .615.028.921.084 1.257.231 2.328.925 3.016 1.953 0 0 .001 0 .001.001 1.466 2.189.759 5.244-1.574 6.809z"/></svg>