<?xml version="1.0" encoding="iso-8859-1"?>
<!-- Generator: Adobe Illustrator 21.0.0, SVG Export Plug-In . SVG Version: 6.00 Build 0)  -->
<svg xmlns="http://www.w3.org/2000/svg" xmlns:xlink="http://www.w3.org/1999/xlink" version="1.1" id="Capa_1" x="0px" y="0px" viewBox="0 0 511.977 511.977" style="enable-background:new 0 0 511.977 511.977;" xml:space="preserve" width="512" height="512">
<g>
	<path d="M507.711,193.553l-36.619-54.685c10.706-10.255,5.205-29.848-5.894-37.141l-33.893-22.274l-21.908-32.716   c-8.142-12.159-25.403-14.669-37.061-6.039L317.492,4.654c-11.797-7.754-27.89-4.338-35.872,7.616l-19.868,29.76   c-5.372,8.045,7.105,16.376,12.475,8.328L294.094,20.6c3.422-5.124,10.224-6.654,15.159-3.41l49.567,32.575l-99.687,66.876   l-20.313-13.251l15.486-23.196c5.372-8.045-7.105-16.375-12.475-8.328l-68.18,102.121L11.687,282.645   c-11.961,8.023-15.29,24.111-7.421,35.863l36.506,54.515c-8.491,11.97-6.634,29.003,6.008,37.311l32.456,21.33   c0.396,0.26,0.811,0.463,1.233,0.64l22.112,33.02c8.146,12.165,25.401,14.641,37.061,6.039l54.844,36.043   c11.792,7.751,28.111,4.007,35.872-7.616l105.703-158.327c0.545-0.816,0.903-1.701,1.094-2.605L500.29,229.416   C512.251,221.393,515.58,205.305,507.711,193.553z M456.959,114.262c2.3,1.511,3.872,3.851,4.428,6.587   c0.249,1.226,0.273,2.466,0.104,3.682l-8.72-13.021L456.959,114.262z M230.492,115.866l15.108,9.855l-39.281,26.353   L230.492,115.866z M55.018,397.799c-2.3-1.511-3.872-3.851-4.428-6.587c-0.249-1.226-0.273-2.466-0.104-3.682l8.72,13.021   L55.018,397.799z M217.883,491.461c-3.422,5.125-10.223,6.657-15.159,3.41l-49.567-32.575l30.01-20.133   c8.034-5.39-0.321-17.843-8.357-12.457l-44.606,29.925c-2.496,1.675-5.465,2.306-8.359,1.771c-2.822-0.52-5.238-2.091-6.801-4.424   L16.73,310.162c-3.271-4.885-1.785-11.641,3.313-15.061l267.081-179.175l110.545,164.271l-194.68,130.604   c-8.034,5.39,0.321,17.844,8.357,12.457l94.312-63.271L217.883,491.461z M491.934,216.959l-81.808,54.882L299.581,107.57   l82.193-55.14c4.823-3.237,11.841-2.304,15.16,2.652l21.8,32.556c0.362,0.852,0.884,1.641,1.555,2.322l74.958,111.939   C498.519,206.783,497.033,213.539,491.934,216.959z"/>
	<path d="M375.737,107.789c-2.307-3.44-6.966-4.357-10.406-2.053c-3.44,2.308-4.359,6.967-2.053,10.406l0.278,0.415   c1.447,2.158,3.819,3.324,6.236,3.324c1.437,0,2.888-0.412,4.17-1.271c3.44-2.308,4.359-6.967,2.053-10.406L375.737,107.789z"/>
	<path d="M406.347,153.501c-2.305-3.442-6.966-4.364-10.405-2.058c-3.441,2.305-4.362,6.964-2.058,10.405l0.632,0.943   c1.446,2.16,3.82,3.327,6.238,3.327c1.435,0,2.886-0.411,4.167-1.27c3.441-2.305,4.362-6.964,2.058-10.405L406.347,153.501z"/>
	<path d="M437.307,199.736c-2.307-3.44-6.966-4.356-10.406-2.053c-3.44,2.308-4.359,6.967-2.053,10.406l0.278,0.415   c1.447,2.158,3.819,3.324,6.236,3.324c1.437,0,2.888-0.412,4.17-1.271c3.44-2.308,4.359-6.967,2.053-10.406L437.307,199.736z"/>
	<path d="M287.473,256.058l-62.416,41.872c-8.087,5.425,0.428,17.773,8.357,12.457l62.416-41.872   C303.864,263.125,295.509,250.67,287.473,256.058z"/>
	<path d="M205.647,268.621l94.019-63.073c8.034-5.39-0.322-17.845-8.357-12.457l-94.019,63.073   C189.203,261.59,197.718,273.937,205.647,268.621z"/>
	<path d="M192.008,325.72l-0.227-0.339c0,0,0,0,0,0s0,0,0,0l-43.018-64.241c-2.864-4.28-9.316-4.386-12.321-0.204l-46.152,64.212   c-1.827,2.541-1.884,5.949-0.142,8.55l32.615,48.707c-1.603,0.566-3.152,1.318-4.602,2.29c-9.197,6.171-11.745,18.558-5.681,27.612   c6.033,9.012,18.745,11.241,27.695,5.238c9.196-6.17,11.744-18.557,5.681-27.612c-0.003-0.005-0.007-0.009-0.01-0.013   l-40.34-60.244l36.807-51.21l26.375,39.386c-1.603,0.566-3.153,1.318-4.602,2.29c-9.197,6.171-11.745,18.558-5.681,27.612   c6.033,9.012,18.745,11.241,27.695,5.238c9.08-6.092,11.662-18.238,5.891-27.261L192.008,325.72z M131.819,405.087   c-1.159,0.777-2.528,1.068-3.858,0.826c-1.257-0.231-2.328-0.925-3.017-1.954c-1.466-2.188-0.76-5.243,1.573-6.809   c0.893-0.599,1.91-0.91,2.938-0.91c0.307,0,0.615,0.028,0.921,0.084c1.257,0.231,2.328,0.925,3.016,1.953c0,0,0.001,0,0.001,0.001   C134.858,400.467,134.152,403.522,131.819,405.087z M177.743,340.535c-1.158,0.777-2.528,1.068-3.858,0.826   c-1.257-0.231-2.328-0.925-3.017-1.954c-1.466-2.188-0.76-5.243,1.573-6.809c0.893-0.599,1.91-0.91,2.938-0.91   c0.307,0,0.615,0.028,0.921,0.084c1.257,0.231,2.328,0.925,3.016,1.953c0,0,0.001,0,0.001,0.001   C180.783,335.915,180.076,338.97,177.743,340.535z"/>
</g>















</svg>
