<svg id="Layer_1" enable-background="new 0 0 60 60" viewBox="0 0 60 60" xmlns="http://www.w3.org/2000/svg"><path d="m16.16 55h27.68c6.15 0 11.16-5.01 11.16-11.16v-27.68c0-6.15-5.01-11.16-11.16-11.16h-27.68c-6.15 0-11.16 5.01-11.16 11.16v27.68c0 6.15 5.01 11.16 11.16 11.16zm-9.16-38.84c0-5.05 4.11-9.16 9.16-9.16h27.68c5.05 0 9.16 4.11 9.16 9.16v27.68c0 5.05-4.11 9.16-9.16 9.16h-27.68c-5.05 0-9.16-4.11-9.16-9.16z"/><path d="m30 46.2c8.93 0 16.2-7.27 16.2-16.2s-7.27-16.2-16.2-16.2-16.2 7.27-16.2 16.2 7.27 16.2 16.2 16.2zm0-30.4c7.83 0 14.2 6.37 14.2 14.2s-6.37 14.2-14.2 14.2-14.2-6.37-14.2-14.2 6.37-14.2 14.2-14.2z"/><path d="m30 39.18c5.06 0 9.18-4.12 9.18-9.18s-4.12-9.18-9.18-9.18-9.18 4.12-9.18 9.18 4.12 9.18 9.18 9.18zm0-16.36c3.96 0 7.18 3.22 7.18 7.18s-3.22 7.18-7.18 7.18-7.18-3.22-7.18-7.18 3.22-7.18 7.18-7.18z"/><path d="m46.54 16.75c1.89 0 3.43-1.54 3.43-3.43s-1.54-3.43-3.43-3.43-3.42 1.54-3.42 3.43c-.01 1.89 1.53 3.43 3.42 3.43zm0-4.85c.79 0 1.43.64 1.43 1.43s-.64 1.43-1.43 1.43-1.42-.64-1.42-1.43.63-1.43 1.42-1.43z"/></svg>