<svg enable-background="new 0 0 512 512" height="512" viewBox="0 0 512 512" width="512" xmlns="http://www.w3.org/2000/svg"><g><path d="m256 16c-132.34 0-240 107.66-240 240s107.66 240 240 240 240-107.66 240-240-107.66-240-240-240zm0 469.17c-126.37 0-229.17-102.8-229.17-229.17s102.8-229.17 229.17-229.17 229.17 102.8 229.17 229.17-102.8 229.17-229.17 229.17z"/><path d="m256 126.08c-71.64 0-129.92 58.29-129.92 129.92s58.28 129.92 129.92 129.92 129.92-58.28 129.92-129.92-58.28-129.92-129.92-129.92zm0 249.02c-65.67 0-119.1-53.43-119.1-119.1s53.43-119.1 119.1-119.1 119.1 53.43 119.1 119.1-53.43 119.1-119.1 119.1z"/><path d="m352.77 250.59c-2.99 0-5.41 2.42-5.41 5.41 0 36.8-21.9 69.84-55.8 84.18-2.75 1.16-4.04 4.34-2.88 7.09.87 2.06 2.88 3.31 4.99 3.31.7 0 1.42-.14 2.11-.43 37.91-16.03 62.4-52.99 62.4-94.15 0-2.99-2.42-5.41-5.41-5.41z"/><path d="m444.02 223.92h-30.18c-14.92-73.49-80.02-128.97-157.84-128.97-88.8 0-161.05 72.25-161.05 161.05s72.25 161.05 161.05 161.05c77.82 0 142.92-55.49 157.83-128.97h30.18c13.49 0 24.46-10.97 24.46-24.46v-15.24c.01-13.49-10.96-24.46-24.45-24.46zm-188.02 182.31c-82.84 0-150.23-67.39-150.23-150.23s67.39-150.23 150.23-150.23 150.23 67.4 150.23 150.23-67.39 150.23-150.23 150.23zm201.65-142.61c0 7.52-6.12 13.63-13.63 13.63h-28.41c.92-6.96 1.45-14.04 1.45-21.25s-.52-14.29-1.45-21.25h28.41c7.52 0 13.63 6.12 13.63 13.63z"/><path d="m302.92 321.23c18.62-18.62 21.64-45.23 21.75-46.35.17-1.63-.4-3.24-1.55-4.4s-2.79-1.72-4.4-1.56c-1.13.12-27.74 3.14-46.35 21.76-8.02 8.02-13.13 17.51-16.38 25.81-3.25-8.31-8.35-17.8-16.37-25.81-18.61-18.62-45.23-21.64-46.35-21.76-1.62-.16-3.24.4-4.4 1.56s-1.73 2.77-1.55 4.4c.12 1.13 3.13 27.73 21.75 46.35 15.58 15.58 36.54 19.73 43.42 21.09.61.12 1.09.21 1.44.29.66.27 1.36.41 2.06.41.03-.01.08 0 .11 0 .76 0 1.48-.16 2.13-.44.33-.07.73-.15 1.26-.25 6.9-1.37 27.85-5.52 43.43-21.1zm-22.89-22.89c10.36-10.36 24.1-15.14 32.44-17.21-2.07 8.34-6.84 22.08-17.2 32.44-10.52 10.51-23.93 14.91-32.4 16.95 2.09-8.34 6.85-21.88 17.16-32.18zm-63.3 15.23c-10.37-10.37-15.14-24.12-17.21-32.46 8.32 2.05 22.03 6.8 32.45 17.22 10.26 10.26 15.04 23.82 17.14 32.18-8.46-2.03-21.87-6.43-32.38-16.94z"/><path d="m256 258.58c-2.68-6.19-6.62-12.94-12.43-18.74-15.24-15.24-37.01-17.71-37.93-17.81-1.62-.15-3.24.4-4.4 1.56s-1.73 2.77-1.55 4.4c.1.92 2.56 22.69 17.81 37.93 12.77 12.77 29.86 16.15 35.48 17.26.43.08.79.15 1.05.21.63.24 1.3.37 1.97.37.03 0 .08-.01.11 0 .5 0 .94-.16 1.4-.28.15-.04.32-.03.47-.09.26-.06.62-.13 1.05-.21 5.61-1.11 22.71-4.49 35.48-17.26 15.25-15.24 17.72-37.01 17.81-37.93.17-1.63-.4-3.24-1.55-4.4s-2.78-1.71-4.4-1.56c-.92.1-22.69 2.57-37.93 17.81-5.82 5.8-9.76 12.55-12.44 18.74zm-30.85-.33c-7.5-7.49-11.28-17.26-13.12-23.9 6.62 1.82 16.35 5.6 23.88 13.13 7.42 7.41 11.2 17.04 13.06 23.68-6.69-1.77-16.24-5.32-23.82-12.91zm74.81-23.87c-1.83 6.64-5.62 16.39-13.11 23.88-7.59 7.59-17.14 11.14-23.84 12.92 1.84-6.62 5.62-16.23 13.08-23.69 7.48-7.49 17.23-11.28 23.87-13.11z"/><path d="m251.04 237.89c.59 1.34 1.71 2.42 3.16 2.93.59.21 1.2.31 1.8.31 1.6 0 3.16-.71 4.21-2.01.58-.72 14.23-17.86 14.23-39.41 0-21.56-13.65-38.7-14.23-39.42-2.06-2.54-6.37-2.54-8.43 0-.58.72-14.23 17.86-14.23 39.42 0 18.06 9.7 32.53 12.89 37.29.25.37.46.67.6.89zm4.97-64.36c3.39 5.97 7.6 15.52 7.6 26.17 0 10.48-4.13 19.97-7.51 25.98-3.48-6-7.71-15.25-7.71-25.98 0-10.59 4.22-20.17 7.62-26.17z"/><path d="m214.09 173.03c2.67-1.35 3.74-4.61 2.39-7.27-1.35-2.67-4.6-3.74-7.27-2.38-35.13 17.78-56.96 53.28-56.96 92.63 0 2.99 2.42 5.41 5.41 5.41s5.41-2.42 5.41-5.41c0-35.26 19.55-67.05 51.02-82.98z"/></g></svg>