<svg height="512" viewBox="0 0 2362 2362" width="512" xmlns="http://www.w3.org/2000/svg"><path d="m2152.02 431.752 24.21-171.039-613.16 33.893-59.7 306.567-30.65-121.008-122.63-9.68-38.73-151.68-484.068-40.336-72.611 358.216-66.169-235.585-111.329 19.355-50.015-180.719-503.439 91.97 335.621 1521.594 125.863 3.24 35.5 158.12 611.551 17.76 45.17-216.23 37.12 145.22 117.78-9.68 43.58 171.04 742.23-59.69 219.446-1641.007zm-238.8 1424.788-661.56 53.24-187.18-722.88-132.317 634.14-534.08-14.53-316.262-1436.071 409.835-75.833 221.07 787.414 153.284-751.92 406.61 33.878 188.8 711.589 142-734.169 516.34-29.054z" fill-rule="evenodd"/></svg>