<svg height="512" viewBox="0 0 2362 2362" width="512" xmlns="http://www.w3.org/2000/svg"><path d="m1541.41 1476q206.7-91.7 281.72-176.7 95.025-108.36 95.02-306.723 0-38.343-3.33-83.359-28.365-370.078-245.05-480.094-118.35-221.7-453.42-221.7-100.035 0-245.045 18.328-303.423 38.345-471.766 61.688l-113.359 1656.98 176.7 11.67-10 155.03 563.457 36.68 8.32-246.71 46.68 86.67 68.34-15 98.36 181.71 636.8-136.69zm-343.4 455.09-280.049-515.11-16.672 511.78-461.766-30.01 106.688-1565.313q45-4.992 361.75-48.344 201.7-28.312 313.389-28.328 218.37 0 326.74 98.344 128.34 115.031 150.03 391.75 3.33 40.006 3.33 76.671 0 203.391-111.69 306.73-61.695 56.685-295.06 160.04l423.42 530.11zm-45-1270.247q-53.34-30-171.705-26.672l-28.344 403.409q148.363-19.995 211.7-55.018 76.695-45 76.69-131.688a264.781 264.781 0 0 0 -3.33-40q-18.345-111.679-85.01-150.031z" fill-rule="evenodd"/></svg>