<svg fill="none" height="28" viewBox="0 0 210 28" width="210" xmlns="http://www.w3.org/2000/svg" xmlns:xlink="http://www.w3.org/1999/xlink"><clipPath id="a"><path d="m0 0h210v28h-210z"/></clipPath><mask id="b" height="28" maskUnits="userSpaceOnUse" width="210" x="0" y="0"><path d="m210 0h-210v28h210z" fill="#fff"/></mask><g clip-path="url(#a)"><g fill="#1a1a1a" mask="url(#b)"><path d="m28.7955 0c-3.4045 0-8.5337 6.22-8.5337 6.22l-4.2643 5.185-2.1347 2.595 1.0649 1.295-4.2644 5.185-4.05433-4.925c-.74989-.91-.74989-2.2 0-3.11l8.02373-9.75c.8949-1.085.1-2.695-1.3348-2.695h-10.0984c-1.76472 0-3.1995 1.395-3.1995 3.11v21.78c0 1.72 1.52476 3.11 3.1995 3.11 3.40447 0 8.5337-6.22 8.5337-6.22l4.2643-5.185 2.1347-2.595-1.0649-1.295 4.2644-5.185 4.0543 4.925c.7499.91.7499 2.2 0 3.11l-8.0187 9.75c-.8949 1.085-.1 2.695 1.3348 2.695h10.0984c1.7647 0 3.1995-1.395 3.1995-3.11v-21.78c0-1.72-1.5248-3.11-3.1995-3.11z"/><path d="m50.495 27.75c-3.745 0-6.595-1.04-8.555-3.125-1.96-2.08-2.94-5.035-2.94-8.87 0-1.905.3-3.605.895-5.1.6-1.49502 1.415-2.76002 2.46-3.79002 1.04-1.03 2.28-1.81 3.72-2.345 1.44-.53 3-.795 4.685-.795.975 0 1.86.07 2.66.215.795.145 1.495.31 2.095.5s1.095.38 1.495.58.685.355.865.465l-1.495 4.185c-.71-.375-1.535-.70001-2.475-.965-.94-.265-2.01-.4-3.205-.4-.795 0-1.58.135-2.345.4-.765.26499-1.44.69499-2.025 1.27999-.585.58503-1.06 1.34503-1.41 2.27503-.355.93-.53 2.06-.53 3.39 0 1.065.115 2.055.35 2.975.23.92.61 1.71 1.13 2.375s1.2 1.19 2.045 1.58c.84.39 1.86.58 3.055.58.755 0 1.43-.045 2.025-.135.6-.09 1.13-.195 1.595-.315s.875-.26 1.23-.415.675-.3.965-.43l1.43 4.155c-.73.445-1.76.84-3.09 1.195s-2.87.53-4.62.53z"/><path d="m77.145 18.515c0 1.375-.2 2.63-.6 3.77s-.975 2.115-1.73 2.925-1.655 1.435-2.71 1.875c-1.05.445-2.23.665-3.54.665s-2.455-.22-3.505-.665c-1.055-.445-1.955-1.07-2.71-1.875-.755-.81-1.34-1.785-1.76-2.925s-.63-2.395-.63-3.77.215-2.625.65-3.755c.43-1.13 1.03-2.095 1.795-2.89s1.67-1.415 2.725-1.86c1.05-.44503 2.2-.66503 3.44-.66503s2.42.22 3.475.66503c1.05.445 1.955 1.065 2.71 1.86s1.34 1.76 1.76 2.89.63 2.38.63 3.755zm-5.05 0c0-1.53-.305-2.73-.915-3.605s-1.48-1.31-2.61-1.31-2.005.435-2.625 1.31-.93 2.075-.93 3.605.31 2.74.93 3.64c.62.895 1.495 1.345 2.625 1.345s2-.45 2.61-1.345.915-2.11.915-3.64z"/><path d="m96.3848 26.72c-.445.135-.95.26-1.53.38-.575.12-1.18.225-1.81.315s-1.275.16-1.925.215c-.655.055-1.28.085-1.88.085-1.44 0-2.725-.21-3.855-.63s-2.08-1.025-2.855-1.81-1.37-1.74-1.78-2.86-.615-2.375-.615-3.77.175-2.695.53-3.84c.355-1.14.865-2.11 1.53-2.91.665-.795 1.48-1.405 2.44-1.825.965-.42 2.065-.63 3.305-.63.685 0 1.3.065 1.845.2.54.135 1.09.32 1.645.565v-7.91l4.95-.795v25.22zm-11.195-8.305c0 1.53.345 2.76 1.03 3.69s1.705 1.395 3.055 1.395c.445 0 .855-.015 1.23-.05s.685-.07.93-.115v-9.01c-.31-.2-.715-.365-1.21-.5-.5-.135-1.005-.2-1.51-.2-2.35 0-3.52 1.595-3.52 4.785z"/><path d="m100.205 18.68c0-1.55.24-2.91.715-4.07.475-1.165 1.1-2.13 1.88-2.91.775-.775 1.665-1.36 2.675-1.75997 1.01-.4 2.045-.6 3.105-.6 2.48 0 4.44.75997 5.88 2.27497 1.44 1.52 2.16 3.75 2.16 6.695 0 .29-.01.605-.035.945-.02.345-.045.65-.065.915h-11.23c.11 1.02.585 1.825 1.43 2.425.84.6 1.97.895 3.39.895.91 0 1.8-.085 2.675-.25s1.59-.37 2.145-.615l.665 4.02c-.265.135-.62.265-1.065.4s-.935.25-1.48.35-1.125.185-1.745.25-1.24.1-1.86.1c-1.575 0-2.94-.235-4.105-.7s-2.125-1.1-2.89-1.91-1.33-1.765-1.695-2.875c-.365-1.105-.55-2.305-.55-3.59zm11.63-1.895c-.02-.42-.095-.83-.215-1.23s-.31-.755-.565-1.065-.575-.565-.965-.765-.87-.3-1.445-.3-1.03.095-1.43.28c-.4.19-.73.44-.995.75s-.47.67-.615 1.08-.25.825-.315 1.245h6.545z"/><path d="m127.055 23.33c.73 0 1.335-.06 1.81-.185.475-.12.86-.29 1.145-.5.29-.21.485-.46.6-.75.11-.29.165-.61.165-.965 0-.755-.355-1.38-1.065-1.875-.71-.5-1.93-1.035-3.655-1.61-.755-.265-1.505-.57-2.26-.915s-1.43-.775-2.025-1.295c-.6-.52-1.085-1.15-1.46-1.895-.375-.74-.565-1.645-.565-2.71 0-1.06503.2-2.02003.6-2.87503s.965-1.58 1.695-2.175c.73-.6 1.615-1.055 2.66-1.38 1.04-.32 2.215-.48 3.52-.48 1.55 0 2.89.165 4.02.5 1.13.33 2.06.7 2.79 1.095l-1.495 4.085c-.645-.33-1.355-.625-2.145-.88-.785-.255-1.735-.38-2.84-.38-1.24 0-2.13.17-2.675.515s-.815.87-.815 1.58003c0 .42.1.775.3 1.065s.48.55.845.78c.365.235.785.445 1.26.63.475.19 1 .38 1.58.58 1.195.445 2.235.88 3.125 1.315.885.43 1.62.935 2.21 1.51.585.575 1.025 1.25 1.31 2.025.29.775.43 1.715.43 2.825 0 2.15-.755 3.815-2.26 5s-3.775 1.78-6.81 1.78c-1.02 0-1.94-.06-2.76-.185-.82-.12-1.545-.27-2.175-.45-.63-.175-1.175-.365-1.63-.565s-.835-.385-1.145-.565l1.46-4.12c.685.375 1.535.715 2.54 1.015s2.245.45 3.705.45z"/><path d="m139.615 5.45497 4.95-.795v5.15h5.95v4.12003h-5.95v6.145c0 1.04.185 1.87.55 2.49s1.1.93 2.21.93c.53 0 1.08-.05 1.645-.15s1.08-.24 1.545-.415l.7 3.855c-.6.245-1.265.455-1.995.63s-1.63.265-2.69.265c-1.35 0-2.47-.185-3.355-.55s-1.595-.875-2.125-1.53-.905-1.445-1.115-2.375-.315-1.96-.315-3.09v-14.68003z"/><path d="m159.95 4.75502c0 .91-.295 1.625-.88 2.145s-1.28.78-2.075.78-1.49-.26-2.075-.78-.88-1.235-.88-2.145.295-1.62.88-2.145c.585-.52 1.28-.78 2.075-.78s1.49.26 2.075.78.88 1.235.88 2.145zm-.465 22.52998h-4.95v-17.47998h4.95z"/><path d="m163.97 5.45497 4.95-.795v5.15h5.95v4.12003h-5.95v6.145c0 1.04.185 1.87.55 2.49s1.1.93 2.21.93c.53 0 1.08-.05 1.645-.15s1.08-.24 1.545-.415l.7 3.855c-.6.245-1.265.455-1.995.63s-1.63.265-2.69.265c-1.35 0-2.47-.185-3.355-.55s-1.595-.875-2.125-1.53-.905-1.445-1.115-2.375-.315-1.96-.315-3.09v-14.68003z"/><path d="m177.39 18.545c0-1.265.205-2.455.615-3.57.41-1.12 1-2.095 1.78-2.925.775-.83 1.715-1.49 2.825-1.975 1.11-.48503 2.37-.73003 3.79-.73003.93 0 1.785.085 2.56.25s1.53.405 2.26.71503l-1.03 3.955c-.465-.175-.975-.33-1.53-.465s-1.175-.2-1.86-.2c-1.46 0-2.555.455-3.275 1.36-.72.91-1.08 2.105-1.08 3.59 0 1.575.34 2.79 1.015 3.655s1.855 1.295 3.54 1.295c.6 0 1.24-.055 1.925-.165s1.32-.29 1.895-.53l.7 4.055c-.575.245-1.295.455-2.16.63s-1.815.265-2.855.265c-1.595 0-2.97-.24-4.12-.715s-2.1-1.125-2.84-1.945c-.745-.82-1.285-1.79-1.63-2.905-.345-1.12-.515-2.33-.515-3.64z"/><path d="m194.835 27.285v-24.99l4.95-.795v8.375c.335-.11.76-.215 1.28-.315s1.025-.15 1.51-.15c1.42 0 2.595.195 3.54.58.94.39 1.695.935 2.26 1.645s.965 1.55 1.195 2.525c.235.975.35 2.06.35 3.255v9.87h-4.95v-9.27c0-1.595-.205-2.725-.615-3.39s-1.17-.995-2.275-.995c-.445 0-.86.04-1.245.115-.39.08-.735.16-1.045.25v13.29h-4.95z"/></g></g></svg>