<svg viewBox="0 0 410.64 199.92" xmlns="http://www.w3.org/2000/svg"><path d="m0 0h410.64v199.92h-410.64c0-66.64 0-133.28 0-199.92zm338.84 126.47c.54.51.93.97 1.41 1.3 4.87 3.41 10.3 4.72 16.18 4.16 1.93-.18 3.5-1.1 4.48-2.83.35-.61.74-.65 1.38-.54 1.17.19 2.38.38 3.56.32 2.91-.15 5.81-.39 8.7-.71 2.52-.28 5.19-.36 7.2-2.18 1.64-1.49 3.33-3.05 4.52-4.89 3.5-5.42 6.9-10.92 10.09-16.52 3.01-5.29 4.79-11.01 4.88-17.17.06-4.29.14-8.59.35-12.88.16-3.38-1.19-6.02-3.55-8.25-2.14-2.03-4.6-3.61-7.45-4.39-3.69-1.01-6.63-2.97-8.86-6.08-.66-.93-1.48-1.82-2.4-2.48-4.14-2.96-8.72-4.57-13.9-4.2-1.8.13-3.61.06-5.19-1.02-1.09-.75-2.14-1.54-3.29-2.19-2.86-1.63-5.74-3.24-9.25-2.27-1.27.35-2.56.64-3.8 1.07-2.67.92-5.2.63-7.59-.79-1.16-.69-2.26-1.5-3.34-2.31-3.37-2.51-6.74-5-11.02-5.78-3.73-.67-7.47-.74-11.15.24-2.93.78-5.55.26-8.14-1.19-1.48-.83-3.07-1.53-4.69-2.06-4.24-1.4-8.58-1.13-12.92-.61-2.76.33-5.51.32-8.1-.87-1.95-.9-3.81-2.02-5.8-2.83-4.48-1.83-9.01-2.95-13.76-.76-2.42 1.11-5.03 1.12-7.44.07-2.47-1.07-4.83-2.43-7.16-3.8-2.69-1.58-5.5-2.71-8.63-2.96-3.72-.29-7.02.84-10.03 2.92-2.53 1.75-4.96 3.63-7.51 5.36-.87.59-1.92 1.15-2.93 1.24-2.25.21-4.56.34-6.8.08-3.4-.39-6.47.45-9.23 2.18-1.89 1.18-3.82 2.04-5.93 2.66-1.96.57-3.78 1.51-4.79 3.34-2.61 4.7-4.56 9.59-3.81 15.15.14 1.06.02 2.16.02 3.24-1.08-1.67-2.06-3.36-2.74-5.17-1.04-2.79-1.91-5.58-3.81-8.01-2.22-2.85-5.01-4.18-8.54-4.29-2.84-.09-5.51.58-8.19 1.45-2.69.87-5.35.99-7.87-.84-1.2-.87-2.72-1.32-4.09-1.95-1.08-.5-2.25-.88-3.24-1.52-4.24-2.75-8.84-3.18-13.68-2.27-3.31.62-6.58 1.78-10.02 1.05-1.18-.25-2.43-.5-3.47-1.07-1.56-.85-2.87-2.19-4.47-2.94-4.25-2-8.74-2.71-13.41-1.86-3.34.61-6.41 1.93-9.28 3.71-4.09 2.54-8.49 3.96-13.36 3.88-1.67-.03-3.35.12-5 .37-4.21.66-8.03 2.16-11.31 5.03-2.13 1.86-4.65 3.01-7.55 3.31-3.48.36-6.97.78-10.22 2.26s-6.22 3.28-7.78 6.68c-.43.93-.66 1.97-.85 2.98-.75 3.99-1.31 8.02-2.21 11.98-1.12 4.88-1.71 9.78-.63 14.7.91 4.15 2.1 8.26 3.38 12.32 1.94 6.17 4.4 12.15 7.47 17.85 1.54 2.85 3.55 5.32 6.82 6.38 2.2.72 4.37 1.5 6.58 2.17 3.93 1.18 7.87 2.34 12.03 2.45.32 0 .77.49.91.85.92 2.25 2.65 3.49 4.9 4.22 2.03.66 4.09.94 6.22 1.02 5.28.19 10.46.04 14.96-3.31.57.74 1.15 1.4 1.62 2.13.17.27.21.75.09 1.05-.86 2.12-1.12 4.34-.88 6.58.11 1.07.3 2.37.97 3.1 2.07 2.27 4.39 4.22 7.53 5.06 7.19 1.92 13.64 5.33 19.53 9.88 3.74 2.89 7.78 5.28 12.31 6.81 3.68 1.24 7.25 1.3 10.88-.11 5.09-1.98 10.22-3.88 15.33-5.82 4.06-1.54 8.22-2.87 12.16-4.67 4.96-2.26 9.54-5.11 11.37-10.77.02-.06.12-.09.26-.18.53 4.32 3.17 7.11 6.61 9.36 3.67 2.41 7.6 4.25 11.8 5.47 6.55 1.9 13.13 3.69 19.7 5.5 2.85.79 5.73.97 8.64.29 4.99-1.16 9.57-2.91 12.89-7.17 5.03-6.46 11.46-11.17 18.94-14.48 1.38-.61 2.7-1.39 3.97-2.2 1.48-.95 2.11-2.43 2.21-4.17.18-3.28-1.19-5.96-3.18-8.41-.26-.32-.52-.64-.72-.88 2.99-2.57 6.31-2.38 9.73-1.65 3.7.79 7.45.94 11.21.55 1.89-.2 3.68.24 5.25 1.08 4.28 2.3 8.69 3.47 13.57 2.44 2.19-.46 4.36-.57 6.57.34 5.61 2.3 11.41 3.48 17.54 2.52 3.11-.49 6.04-1.19 8.27-3.82z" fill="#fff"/><path d="m338.84 126.47c-2.23 2.63-5.16 3.33-8.27 3.82-6.13.96-11.92-.22-17.54-2.52-2.22-.91-4.38-.8-6.57-.34-4.87 1.02-9.28-.14-13.57-2.44-1.57-.85-3.36-1.28-5.25-1.08-3.76.39-7.5.24-11.21-.55-3.42-.73-6.73-.92-9.73 1.65.2.24.46.56.72.88 1.99 2.45 3.36 5.13 3.18 8.41-.1 1.74-.72 3.21-2.21 4.17-1.27.82-2.59 1.6-3.97 2.2-7.49 3.3-13.91 8.02-18.94 14.48-3.32 4.26-7.91 6.01-12.89 7.17-2.91.68-5.79.5-8.64-.29-6.57-1.81-13.15-3.6-19.7-5.5-4.2-1.22-8.13-3.06-11.8-5.47-3.43-2.25-6.08-5.04-6.61-9.36-.14.09-.24.12-.26.18-1.83 5.65-6.41 8.51-11.37 10.77-3.94 1.8-8.1 3.13-12.16 4.67-5.11 1.94-10.23 3.84-15.33 5.82-3.63 1.41-7.2 1.35-10.88.11-4.54-1.53-8.58-3.92-12.31-6.81-5.89-4.55-12.34-7.96-19.53-9.88-3.14-.84-5.46-2.79-7.53-5.06-.67-.73-.86-2.03-.97-3.1-.23-2.24.02-4.45.88-6.58.12-.3.08-.79-.09-1.05-.47-.73-1.05-1.4-1.62-2.13-4.49 3.35-9.67 3.5-14.96 3.31-2.13-.08-4.19-.36-6.22-1.02-2.25-.73-3.98-1.96-4.9-4.22-.15-.36-.59-.84-.91-.85-4.16-.11-8.1-1.27-12.03-2.45-2.21-.66-4.39-1.45-6.58-2.17-3.27-1.07-5.28-3.53-6.82-6.38-3.07-5.7-5.53-11.68-7.47-17.85-1.28-4.06-2.47-8.17-3.38-12.32-1.08-4.91-.48-9.81.63-14.7.9-3.95 1.46-7.99 2.21-11.98.19-1.01.43-2.05.85-2.98 1.56-3.4 4.53-5.2 7.78-6.68s6.73-1.9 10.22-2.26c2.9-.3 5.43-1.45 7.55-3.31 3.28-2.87 7.11-4.36 11.31-5.03 1.65-.26 3.33-.4 5-.37 4.87.08 9.27-1.35 13.36-3.88 2.87-1.78 5.94-3.1 9.28-3.71 4.68-.85 9.16-.14 13.41 1.86 1.6.75 2.91 2.09 4.47 2.94 1.05.57 2.29.82 3.47 1.07 3.44.73 6.71-.42 10.02-1.05 4.84-.91 9.43-.48 13.68 2.27.99.64 2.16 1.02 3.24 1.52 1.37.64 2.89 1.08 4.09 1.95 2.52 1.83 5.17 1.71 7.87.84 2.68-.87 5.35-1.53 8.19-1.45 3.53.11 6.31 1.44 8.54 4.29 1.89 2.43 2.77 5.22 3.81 8.01.67 1.81 1.66 3.5 2.74 5.17 0-1.08.12-2.18-.02-3.24-.74-5.57 1.21-10.46 3.81-15.15 1.01-1.83 2.84-2.77 4.79-3.34 2.11-.61 4.04-1.47 5.93-2.66 2.76-1.73 5.83-2.57 9.23-2.18 2.24.26 4.54.12 6.8-.08 1.01-.09 2.06-.65 2.93-1.24 2.54-1.72 4.98-3.61 7.51-5.36 3-2.09 6.31-3.22 10.03-2.92 3.13.25 5.94 1.38 8.63 2.96 2.33 1.37 4.69 2.72 7.16 3.8 2.41 1.05 5.02 1.04 7.44-.07 4.75-2.18 9.28-1.06 13.76.76 1.99.81 3.84 1.93 5.8 2.83 2.59 1.19 5.34 1.2 8.1.87 4.35-.53 8.69-.79 12.92.61 1.62.53 3.21 1.23 4.69 2.06 2.59 1.45 5.21 1.97 8.14 1.19 3.68-.98 7.42-.91 11.15-.24 4.28.77 7.65 3.27 11.02 5.78 1.09.81 2.18 1.62 3.34 2.31 2.39 1.42 4.92 1.71 7.59.79 1.24-.43 2.53-.72 3.8-1.07 3.51-.97 6.39.64 9.25 2.27 1.14.65 2.2 1.45 3.29 2.19 1.58 1.09 3.39 1.15 5.19 1.02 5.18-.37 9.75 1.25 13.9 4.2.92.66 1.73 1.55 2.4 2.48 2.23 3.11 5.17 5.08 8.86 6.08 2.85.78 5.3 2.36 7.45 4.39 2.36 2.23 3.72 4.87 3.55 8.25-.21 4.29-.28 8.58-.35 12.88-.09 6.17-1.87 11.88-4.88 17.17-3.19 5.61-6.59 11.11-10.09 16.52-1.19 1.84-2.88 3.41-4.52 4.89-2.01 1.82-4.68 1.89-7.2 2.18-2.89.33-5.8.56-8.7.71-1.18.06-2.38-.12-3.56-.32-.64-.11-1.03-.07-1.38.54-.98 1.73-2.55 2.65-4.48 2.83-5.89.56-11.31-.75-16.18-4.16-.48-.34-.87-.8-1.41-1.3zm16.05-50.78c.14.08.29.16.43.25-.83 1.64-1.65 3.28-2.49 4.92-.87 1.69-2.03 3.29-2.56 5.08-1.14 3.85-1.9 7.81-2.9 11.71-1.46 5.67-3.02 11.31-4.5 16.97-.89 3.42-1.73 6.86-2.53 10.3-.08.33.15.9.42 1.12 1.2.98 2.35 2.16 3.73 2.73 1.96.81 4.12 1.11 6.18 1.68s4.1.33 6.15-.01c1.45-.24 2.41-1.08 3.17-2.3 4.28-6.84 7.09-14.36 10.02-21.8 1.51-3.83 2.12-8.02 3.61-11.87 1.75-4.52 3.87-8.91 6.09-13.22 1.06-2.07 2.7-3.84 4.08-5.75.1.07.2.13.29.2-2.02 3.36-4.04 6.72-6.06 10.09.11.08.22.15.32.23 1.97-2.07 4.12-3.89 6.61-5.3-.8.95-1.71 1.76-2.63 2.56-3.76 3.31-6.64 7.13-7.83 12.14-1.43 6.02-3.41 11.86-6.05 17.48-.65 1.38-1.39 2.88-1.45 4.35-.15 3.71 2.59 5.58 5.35 7.3.93.58 1.95 1.02 2.92 1.53-.05.1-.1.21-.15.31-1.96-.56-3.79-1.36-5.51-2.54-1.79-1.22-3.11-2.67-3.7-4.87-1.24 2.64-2.47 5.29-3.82 8.18 1.82.12 3.45.35 5.06.31 2.27-.05 4.53-.33 6.79-.47 4.86-.3 8.61-2.35 11.37-6.47 4.01-5.97 7.75-12.08 11.06-18.46 2.41-4.65 3.74-9.61 3.61-14.82-.09-3.84-.02-7.64.52-11.44.35-2.45.13-4.88-1.57-6.77-1.29-1.43-2.79-2.8-4.45-3.75-2.01-1.15-4.26-1.92-6.46-2.72-2.97-1.08-5.11-3.16-7.09-5.5-.92-1.09-1.83-2.29-3.01-3.02-4.06-2.51-8.46-4.08-13.33-3.87-2.05.09-3.78-.53-5.5-1.64-1.97-1.27-4.06-2.4-6.21-3.33-1.15-.5-2.57-.71-3.82-.6-1.72.16-3.46.62-5.09 1.21-1.82.66-3.61.69-5.41.25-2.54-.62-4.62-2.14-6.63-3.72-2.73-2.15-5.62-3.93-9.03-4.89-4.43-1.26-8.77-1.38-13.17.02-.55.18-1.19.21-1.77.14-2.39-.32-4.64-1.04-6.72-2.3-2.8-1.69-5.9-2.45-9.14-2.47-3.5-.02-6.99.28-10.49.24-2.4-.03-4.8-.15-7-1.51-1.85-1.14-3.89-2.04-5.93-2.81-3.31-1.25-6.63-1.82-10.07-.08-1.45.74-3.22 1.23-4.83 1.19-2.63-.07-5.19-.8-7.47-2.29-1.54-1-3.1-1.98-4.74-2.82-6.89-3.51-12.58-3.5-18.34 1.4-1.58 1.34-3.31 2.51-4.95 3.78-2.69 2.07-5.74 2.58-9.05 2.31-3.13-.26-6.25-.55-9.25.96-2.74 1.38-5.58 2.56-8.41 3.72-1.81.74-3.35 1.76-4.19 3.55-.81 1.73-1.51 3.52-2.12 5.33-1.88 5.6-.59 11.31-.4 16.97.11 3.22.65 6.43.86 9.65.3 4.62.38 9.26.71 13.88.44 6.16 1.15 12.3 1.52 18.47.17 2.85 0 5.75-.37 8.58-.4 3 .25 5.57 2.02 7.97.97 1.32 1.79 2.74 2.7 4.1.24.36.52.71.84 1 2.69 2.57 6.01 3.55 9.61 3.68 4.01.14 7.89-.76 11.58-2.17 2.94-1.13 4.93-3.33 5.14-6.74.07-1.19.38-2.37.4-3.56.06-3.58.39-7.21-.05-10.74-.73-5.79-2.35-11.45-2.63-17.34-.22-4.5-.98-8.97-1.19-13.46-.33-7.07-1.38-13.96-3.78-20.64-.08-.21-.07-.46-.1-.68.15-.04.3-.08.44-.12 1.01 2.85 2.02 5.69 3.01 8.49.76-2.68 1.53-5.41 2.3-8.13.16.04.31.08.47.12-.12.54-.24 1.08-.38 1.62-1.03 4.02-2.01 8.01-1.49 12.26.77 6.29 1.22 12.62 1.91 18.93.43 3.92.83 7.85 1.62 11.71.94 4.62 1.77 9.24 1.67 13.97-.03 1.59-.21 3.17-.33 4.92 2.49.63 4.94 1.25 7.39 1.87-.04.14-.07.28-.11.42-2.44-.57-4.89-1.15-7.35-1.72-.11.49-.13.95-.31 1.33-.51 1.1 0 1.61.94 2.12 2.75 1.49 5.67 2.08 8.78 1.9.96-.05 1.92-.05 2.88-.06h2.84c0 .11-.02.23-.03.34-5.42.42-10.89 1.26-15.95-2 .02.3.07.47.18.51 2.09.86 4.14 1.9 6.3 2.5 1.62.45 3.4.33 5.11.46 3.68.28 7.35.34 10.91-.87.64-.22 1.34-.63 1.73-1.16 2.46-3.33 3.86-7.02 3.68-11.24-.13-2.99-.33-5.99-.2-8.97.21-5.02.71-10.02.98-15.03.25-4.71.3-9.44-.62-14.08-.8-4.06-1.29-8.12-.89-12.25.05-.53.19-1.06.34-1.88.29 3.17.29 6.04.86 8.8 1.37 6.66 1.65 13.38 1.49 20.13-.15 6.5-.4 13-.49 19.51-.05 3.86.17 7.73-1.24 11.42.14.06.21.13.28.12.32-.02.64-.06.95-.09 5.39-.63 10.63-.49 15.24 2.97.23.17.65.32.87.22 1.76-.8 3.65-1.3 4.98-2.93 1.84-2.25 2.54-4.86 2.77-7.64.39-4.73.8-9.47 1.03-14.22.37-7.54.59-15.09-.18-22.62-.29-2.81.15-5.48 1.18-8.09.46-1.18.78-2.42 1.16-3.63.07-.23.15-.46.23-.69.12.03.24.06.37.09-.32 1.48-.52 3-.98 4.44-.9 2.78-1.35 5.56-.84 8.48.22 1.29.32 2.62.34 3.93.15 9.79.06 19.58-.98 29.32-.28 2.6-.68 5.2-1.29 7.74-.32 1.33-1.2 2.52-1.77 3.64 1.37.16 2.81.25 4.2.51 5.69 1.08 11.34 1.09 17-.26 1.22-.29 2.12-.93 2.75-1.95 1.68-2.7 2.99-5.58 3.27-8.78.44-4.97.76-9.95 1.18-14.92.52-6.13.93-12.27 1.7-18.36.53-4.14 1.6-8.22 2.45-12.32.06-.28.24-.53.36-.79.32.47.44.93.39 1.36-.26 2.06-.49 4.12-.87 6.16-.42 2.23-1.24 4.41-1.46 6.65-.76 7.63-1.27 15.28-2 22.91-.41 4.27 0 8.64-1.43 12.8-1.25 3.62-2.4 7.31-6.96 8.74 2.26.97 4.22 1.96 6.28 2.67 3.12 1.08 6.31.7 9.46.05 3.44-.71 6.28-2.4 8.56-5.12 2.9-3.46 4.71-7.4 5.34-11.84.66-4.61 1.22-9.23 1.76-13.85.73-6.3 1.21-12.64 2.16-18.91.62-4.12 1.88-8.14 2.88-12.2.05-.21.41-.35.63-.52.08.24.27.49.23.7-.14.74-.3 1.49-.56 2.2-1.58 4.35-2.22 8.89-2.68 13.46-.56 5.57-1.11 11.15-1.74 16.71-.49 4.26-1.07 8.51-1.68 12.75-.54 3.71-1.55 7.27-3.95 10.27-1.28 1.61-2.67 3.13-4.05 4.72 3.67 1.78 7.78 1.74 11.81 2.17-3.93.2-7.84.13-11.54-1.24-1.43-.53-2.3-.01-3.53.81 1.94.59 3.67 1.15 5.42 1.65 4.97 1.44 9.97 2.05 15.12.88 3.33-.76 6.55-3.83 7.35-7.12.86-3.56 1.84-7.09 2.86-10.6 2.21-7.65 4.45-15.28 5.83-23.15.3-1.71 1.12-3.39 1.94-4.95.9-1.72 2.1-3.28 3.15-4.92.49-.76.94-1.56 1.41-2.33zm-195.29-11.22.31.06c.02.21.1.44.05.64-1.13 5.4-.58 10.78-.06 16.2.41 4.2.59 8.46.45 12.67-.25 7.05.15 14.03 1.18 20.99.43 2.9 1.34 5.74.98 8.75-.07.59.14 1.64.5 1.78 2.32.91 4.69 2.14 7.1 2.29 2.88.17 5.86-.49 8.74-1.05 2.94-.57 4.81-2.49 5.72-5.37 1.15-3.68 1.66-7.47 1.79-11.29.2-5.75-.16-11.48-.62-17.22-.62-7.72-.88-15.47-1.34-23.2-.21-3.47-.54-6.94-1.9-10.19-1.58-3.79-3.16-7.58-4.94-11.27-2.24-4.63-5.7-7.65-11.24-6.99-2.31.28-4.59.93-6.85 1.54-2.75.74-5.32.75-7.78-.98-1.16-.82-2.5-1.39-3.79-2.01-1.19-.57-2.48-.94-3.61-1.58-4.98-2.84-10.2-3.01-15.63-1.68-1.62.4-3.29.75-4.94.8-3.56.09-6.85-.8-9.62-3.24-.79-.7-1.74-1.33-2.73-1.68-7.18-2.58-14.02-1.98-20.46 2.28-2.37 1.57-4.82 3.07-7.68 3.49-2.95.43-5.94.55-8.91.87-4.23.46-8.3 1.23-11.71 4.2-3.23 2.81-7.06 4.4-11.42 4.68-3.98.26-7.74 1.32-11.19 3.46-2.74 1.69-4.41 3.96-4.7 7.21-.41 4.57-1.17 9.07-2.3 13.53-1.13 4.48-1.25 9.08-.16 13.64 2.2 9.19 5.64 17.93 9.53 26.52 1.87 4.12 4.75 7.06 9.09 8.43 2.96.94 5.94 1.87 8.96 2.59 2.34.56 4.72 1.16 7.29.72-.84-3.29-1.66-6.53-2.49-9.77-1.18 2.53-3.18 3.8-5.59 4.73-2.63 1.01-6.18 1.73-7.04 1.14 2.9-.54 5.63-1.44 8.21-2.89 2.78-1.56 4.3-4.37 3.53-7.46-1.93-7.77-3.11-15.64-3.51-23.64-.11-2.16-.54-4.38-1.28-6.41-1.2-3.27-3.18-6.16-5.47-8.8-.37-.42-.7-.87-1.04-1.31-.31-.41-.61-.82-.91-1.23.12-.09.24-.18.36-.28 2.14 2.53 4.29 5.06 6.51 7.67-1.1-4.44-2.65-8.64-4.56-12.73.37.24.63.52.78.86 1.34 2.97 2.89 5.88 3.92 8.96 1.56 4.64 2.86 9.39 3.08 14.34.3 6.63.96 13.21 2.63 19.66 1.41 5.44 2.54 10.96 4.14 16.34 1.57 5.3 2.46 5.87 7.86 7.08.16.03.31.06.47.07 1.95.08 3.92.01 5.85.26 3.36.44 6.27-.75 9.15-2.19 1.1-.55 1.91-1.28 1.32-2.71-.14-.34-.03-.79-.05-1.19-.25-5.22-.5-10.44-.74-15.66-.34-7.26-.68-14.52-.99-21.78-.17-4.06-.2-8.1-2.18-11.88-.85-1.63-1.04-3.61-1.52-5.43.14-.04.27-.09.41-.13.15.38.32.75.46 1.13.77 2.05 1.4 4.16 2.34 6.13.9 1.89 1.83 3.72 1.85 5.86.01 1.19-.11 2.39-.06 3.58.3 7.22.6 14.44.98 21.65.31 5.81.73 11.62 1.13 17.42.04.58.16 1.2.41 1.71 1.58 3.2 3.98 5.52 7.35 6.85 2.41.95 4.92.91 7.43 1 4.05.15 7.96-.72 11.72-2.01 2.26-.77 4.28-2.26 6.39-3.46.19-.11.32-.5.31-.76-.14-3.03-.47-6.06-.44-9.08.07-7.45-1.41-14.76-1.94-22.16-.44-6.17-.88-12.34-1.31-18.51-.23-3.22-.43-6.45-.65-9.68-.1-1.42-.23-2.83-.34-4.25.11-.01.22-.03.33-.04.07.21.18.4.22.62.27 1.73.44 3.48.8 5.19 1.06 5.12.83 10.33 1.23 15.5.48 6.24 1.16 12.47 1.78 18.7.48 4.83 1.04 9.66 1.46 14.5.26 2.98.38 5.97.44 8.96.02 1.27.63 2.01 1.68 2.32 2.48.71 4.97 1.61 7.51 1.86 5.91.58 11.44-.99 16.74-3.55 3.45-1.67 4.95-4.39 4.59-8.13-.26-2.65-.65-5.3-1.04-7.93-.94-6.34-1.18-12.68-.79-19.09.22-3.69.07-7.44-.3-11.12-.55-5.43-.8-10.82.24-16.22.14-.74.37-1.46.56-2.2zm33.26 63.99c-2.12-3.34-4.14-6.52-6.11-9.64-1.16 2.28-1.79 4.78-.87 7.53.41 1.24.66 2.54.9 3.83.49 2.66 1.09 5.31.14 8.02-.23.64-.14 1.42-.08 2.13.29 3.81 2.27 6.64 5.22 8.91 3.43 2.63 7.26 4.56 11.37 5.77 6.76 2 13.6 3.75 20.41 5.58 1.3.35 2.64.6 3.87.88-.75-1.79-1.46-3.47-2.17-5.16.13-.06.26-.11.39-.17.16.35.31.71.49 1.05.51.99.99 1.99 1.54 2.96.64 1.13 1.61 1.6 2.92 1.3 1.63-.38 3.28-.68 4.89-1.14 3.87-1.11 7.08-3.15 9.49-6.5 1.32-1.83 3.05-3.37 4.63-5.01.26-.27.66-.42.75-.47-.78-1.02-1.44-1.69-1.87-2.49-1.21-2.24-2.26-4.58-3.5-6.8-2.47-4.44-.86-8.25 2.39-10.39 2.61-1.73 5.48-3.07 8.25-4.56 1.74-.94 3.6-.93 5.49-.55.71.14 1.4.37 2.11.56.04-.1.08-.19.12-.29-1.44-.66-2.84-1.42-4.32-1.95-3.44-1.22-6.95-.49-10.44-.15-.79.08-1.3.4-1.66 1.12-1.3 2.59-3.41 4.08-6.31 4.3-2.78.21-5.56.39-8.35.42-3.35.04-3.5.07-4.69 3.23-.15.41-.28.83-.45 1.23-.14.34-.32.67-.48 1.01-.12-.05-.24-.09-.37-.14.59-1.83 1.19-3.65 1.84-5.66-.79 0-1.73-.24-2.47.05-1.97.75-3.36 2.19-4.04 4.24-.63 1.9-1.26 3.8-1.85 5.58-.35-3.89.99-7.21 4.29-10.45-1.38-.77-2.77-1.54-4.19-2.33-.42.56-.8 1.12-1.24 1.62-1.31 1.47-2.69 2.94-4.66 3.43-3.01.76-6.04 1.45-9.09 1.97-2.63.44-5.24.05-7.75-.9-1.18-.45-2.34-.93-3.74-1.5-1.31 2.33-2.64 4.69-3.97 7.04.41-2.89 1.47-5.47 3.18-7.51zm-8.62-3.1c-3.18 3.03-7.19 3.16-11 3.94-4.19.86-7.7-1-11.35-2.67-2.65 3.13-6.26 4.76-10.19 6.16 2.4 1.42 4.13 3.2 5.29 5.81-1.76-1.59-3.22-3.14-4.91-4.39-1.91-1.42-3.99-.42-6.17-.09 1.94 1.59 2.4 3.59 2.45 5.77-.41-.39-.63-.89-.92-1.34-.85-1.29-1.7-2.57-2.62-3.81-.19-.26-.65-.43-.99-.45-1.27-.06-2.56.06-3.82-.06-3.2-.31-6.32-1.01-9.13-2.62-1.08-.62-1.82-.7-2.96-.01-2.13 1.28-4.44 2.29-6.73 3.44 1.02 1.61 1.53 3.5.51 5.41-1.31 2.44-1.97 5.05-2.38 7.73-.19 1.21-.64 2.08-1.99 2.28 1.86 1.28 3.61 2.52 5.39 3.73 2.77 1.88 5.49 3.87 8.36 5.59 2.93 1.76 6.17 2.81 9.59 3.16 1.8.19 1.94.01 1.9-1.77-.05-2.55-.19-5.1-.28-7.66 0-.25.07-.5.11-.75.12 0 .24.02.35.03.22 3.29.45 6.58.68 10.03 1.26-.37 2.43-.62 3.51-1.08.55-.23 1.15-.76 1.36-1.29 1.04-2.64 1.36-5.39.96-8.22-.29-2.06-.46-4.13-.69-6.2.15 0 .29-.02.44-.03.74 4.9 1.86 9.79.08 14.97 1.62-.69 2.93-1.38 4.32-1.79 1.62-.48 2.43-1.54 2.82-3.07.19-.73.37-1.47.59-2.2.12-.39.3-.75.46-1.13l.42.12c-.32 1.6-.64 3.2-.97 4.86.11-.02.26-.03.41-.07 5.73-1.63 11.31-3.64 16.79-6 6.86-2.96 10.26-8.62 12.1-15.41 1.03-3.8-1.46-7.14-1.84-10.92zm75.44-1.04c-.79.09-1.62.04-2.35.3-3.44 1.21-6.7 2.76-9.48 5.2-2.86 2.5-3.41 4.64-1.86 8.08 1.23 2.72 2.61 5.37 3.97 8.02.62 1.2 1.4 1.31 2.55.62 3.49-2.09 7.01-4.1 10.5-6.2 1.71-1.02 3.37-2.13 5.01-3.25.86-.59 1.08-1.43.95-2.52-.31-2.44-1.41-4.52-2.91-6.32-1.64-1.96-3.22-4.24-6.36-3.92zm-162.13 7.94c-.73 3.44-1.63 6.78.97 9.46 1.38 1.42 3.35 2.39 5.22 3.2 2.7 1.17 5.53 2.04 8.33 2.98 1.58.53 3.2.94 4.82 1.37.9.24 1.46-.07 1.54-1.09.19-2.64 1.13-5.06 2.35-7.36.91-1.72.66-3.28-.22-4.89-.34-.62-.76-.8-1.46-.69-2.56.39-5.12.85-7.7 1.06-4.99.41-9.72-.28-13.84-4.04zm170.83-2.25c-.7-2.09-2.31-4.24-3.57-4.82 1.16 1.57 2.29 3.09 3.57 4.82z"/><g fill="#fff"><path d="m354.89 75.69c-.47.78-.92 1.57-1.41 2.33-1.05 1.64-2.25 3.2-3.15 4.92-.82 1.56-1.64 3.23-1.94 4.95-1.39 7.86-3.62 15.5-5.83 23.15-1.02 3.52-1.99 7.05-2.86 10.6-.8 3.29-4.02 6.36-7.35 7.12-5.15 1.17-10.15.56-15.12-.88-1.74-.51-3.47-1.06-5.42-1.65 1.23-.82 2.1-1.34 3.53-.81 3.7 1.37 7.62 1.45 11.54 1.24-4.03-.44-8.14-.4-11.81-2.17 1.37-1.6 2.77-3.12 4.05-4.72 2.39-3 3.41-6.56 3.95-10.27.62-4.24 1.2-8.49 1.68-12.75.64-5.56 1.18-11.14 1.74-16.71.46-4.58 1.1-9.11 2.68-13.46.26-.71.42-1.46.56-2.2.04-.21-.15-.47-.23-.7-.22.17-.58.31-.63.52-1 4.06-2.26 8.08-2.88 12.2-.95 6.27-1.43 12.61-2.16 18.91-.54 4.62-1.1 9.24-1.76 13.85-.64 4.44-2.44 8.38-5.34 11.84-2.28 2.72-5.13 4.41-8.56 5.12-3.15.65-6.35 1.02-9.46-.05-2.06-.71-4.02-1.7-6.28-2.67 4.56-1.43 5.71-5.13 6.96-8.74 1.43-4.15 1.03-8.52 1.43-12.8.72-7.63 1.24-15.28 2-22.91.22-2.24 1.04-4.42 1.46-6.65.38-2.04.62-4.1.87-6.16.05-.43-.07-.89-.39-1.36-.12.26-.3.51-.36.79-.85 4.1-1.92 8.17-2.45 12.32-.78 6.09-1.18 12.24-1.7 18.36-.42 4.97-.74 9.95-1.18 14.92-.29 3.21-1.59 6.08-3.27 8.78-.63 1.01-1.52 1.65-2.75 1.95-5.65 1.36-11.31 1.34-17 .26-1.4-.27-2.83-.35-4.2-.51.56-1.12 1.45-2.32 1.77-3.64.61-2.54 1.02-5.14 1.29-7.74 1.04-9.75 1.13-19.53.98-29.32-.02-1.31-.12-2.64-.34-3.93-.51-2.92-.06-5.7.84-8.48.47-1.43.66-2.96.98-4.44-.12-.03-.24-.06-.37-.09-.08.23-.15.46-.23.69-.38 1.21-.69 2.45-1.16 3.63-1.03 2.61-1.47 5.28-1.18 8.09.77 7.53.55 15.08.18 22.62-.23 4.74-.64 9.48-1.03 14.22-.23 2.78-.92 5.38-2.77 7.64-1.34 1.63-3.23 2.13-4.98 2.93-.22.1-.64-.05-.87-.22-4.6-3.45-9.84-3.59-15.24-2.97-.32.04-.63.07-.95.09-.07 0-.14-.06-.28-.12 1.41-3.69 1.18-7.56 1.24-11.42.09-6.5.34-13 .49-19.51.16-6.76-.12-13.47-1.49-20.13-.56-2.75-.57-5.62-.86-8.8-.15.83-.29 1.35-.34 1.88-.41 4.13.09 8.19.89 12.25.92 4.65.87 9.38.62 14.08-.27 5.01-.77 10.02-.98 15.03-.12 2.98.08 5.98.2 8.97.18 4.22-1.22 7.91-3.68 11.24-.39.53-1.09.94-1.73 1.16-3.55 1.21-7.22 1.15-10.91.87-1.71-.13-3.49-.01-5.11-.46-2.17-.6-4.21-1.64-6.3-2.5-.1-.04-.16-.21-.18-.51 5.06 3.27 10.53 2.42 15.95 2 0-.11.02-.23.03-.34-.95 0-1.89 0-2.84 0-.96 0-1.92 0-2.88.06-3.1.17-6.02-.42-8.78-1.9-.95-.51-1.45-1.02-.94-2.12.18-.39.2-.85.31-1.33 2.47.58 4.91 1.15 7.35 1.72.04-.14.07-.28.11-.42-2.45-.62-4.9-1.24-7.39-1.87.12-1.75.3-3.33.33-4.92.1-4.73-.73-9.34-1.67-13.97-.78-3.85-1.19-7.79-1.62-11.71-.69-6.3-1.14-12.63-1.91-18.93-.52-4.25.47-8.24 1.49-12.26.14-.54.25-1.08.38-1.62-.16-.04-.31-.08-.47-.12-.77 2.72-1.54 5.45-2.3 8.13-.99-2.8-2-5.65-3.01-8.49-.15.04-.3.08-.44.12.03.23.02.47.1.68 2.4 6.67 3.46 13.57 3.78 20.64.21 4.5.98 8.97 1.19 13.46.28 5.89 1.9 11.55 2.63 17.34.44 3.53.11 7.16.05 10.74-.02 1.19-.32 2.37-.4 3.56-.21 3.41-2.2 5.6-5.14 6.74-3.69 1.42-7.57 2.31-11.58 2.17-3.6-.12-6.93-1.11-9.61-3.68-.31-.3-.6-.64-.84-1-.91-1.36-1.73-2.78-2.7-4.1-1.77-2.4-2.41-4.96-2.02-7.97.37-2.83.54-5.74.37-8.58-.37-6.16-1.08-12.31-1.52-18.47-.33-4.62-.41-9.25-.71-13.88-.21-3.22-.75-6.43-.86-9.65-.2-5.66-1.48-11.37.4-16.97.61-1.81 1.31-3.6 2.12-5.33.83-1.78 2.38-2.81 4.19-3.55 2.84-1.16 5.68-2.34 8.41-3.72 3-1.51 6.12-1.22 9.25-.96 3.3.27 6.36-.24 9.05-2.31 1.64-1.27 3.37-2.43 4.95-3.78 5.77-4.9 11.46-4.91 18.34-1.4 1.63.83 3.2 1.81 4.74 2.82 2.28 1.49 4.84 2.21 7.47 2.29 1.61.05 3.38-.45 4.83-1.19 3.44-1.75 6.76-1.17 10.07.08 2.04.77 4.08 1.67 5.93 2.81 2.21 1.36 4.6 1.48 7 1.51 3.5.04 6.99-.25 10.49-.24 3.24.01 6.34.78 9.14 2.47 2.09 1.26 4.33 1.99 6.72 2.3.58.08 1.22.04 1.77-.14 4.39-1.4 8.74-1.27 13.17-.02 3.42.97 6.3 2.74 9.03 4.89 2.02 1.59 4.09 3.1 6.63 3.72 1.8.44 3.59.41 5.41-.25 1.63-.59 3.37-1.05 5.09-1.21 1.25-.12 2.66.1 3.82.6 2.15.93 4.24 2.06 6.21 3.33 1.72 1.11 3.45 1.73 5.5 1.64 4.87-.21 9.27 1.36 13.33 3.87 1.18.73 2.09 1.94 3.01 3.02 1.98 2.34 4.12 4.42 7.09 5.5 2.2.8 4.45 1.56 6.46 2.72 1.66.95 3.16 2.32 4.45 3.75 1.71 1.9 1.92 4.33 1.57 6.77-.54 3.8-.61 7.6-.52 11.44.13 5.22-1.2 10.17-3.61 14.82-3.31 6.38-7.05 12.49-11.06 18.46-2.76 4.12-6.52 6.17-11.37 6.47-2.27.14-4.53.42-6.79.47-1.62.04-3.24-.19-5.06-.31 1.35-2.89 2.59-5.53 3.82-8.18.59 2.2 1.91 3.65 3.7 4.87 1.73 1.18 3.56 1.98 5.51 2.54.05-.1.1-.21.15-.31-.98-.5-1.99-.95-2.92-1.53-2.76-1.71-5.5-3.58-5.35-7.3.06-1.47.8-2.97 1.45-4.35 2.64-5.62 4.62-11.46 6.05-17.48 1.19-5.01 4.08-8.83 7.83-12.14.92-.81 1.83-1.61 2.63-2.56-2.49 1.41-4.64 3.23-6.61 5.3-.11-.08-.22-.15-.32-.23 2.02-3.36 4.04-6.72 6.06-10.09-.1-.07-.2-.13-.29-.2-1.38 1.91-3.02 3.68-4.08 5.75-2.21 4.32-4.34 8.7-6.09 13.22-1.49 3.85-2.09 8.03-3.61 11.87-2.93 7.44-5.74 14.96-10.02 21.8-.76 1.22-1.73 2.06-3.17 2.3-2.05.34-4.09.58-6.15.01s-4.22-.87-6.18-1.68c-1.39-.57-2.54-1.75-3.73-2.73-.27-.22-.5-.79-.42-1.12.8-3.44 1.64-6.88 2.53-10.3 1.48-5.66 3.04-11.3 4.5-16.97 1-3.89 1.76-7.85 2.9-11.71.53-1.79 1.69-3.39 2.56-5.08.84-1.64 1.66-3.28 2.49-4.92-.14-.08-.29-.16-.43-.25zm-141.51 5.93c-.52-.59-1.2-1.01-1.24-1.47-.24-3.26-1.68-5.99-3.65-8.45-2.15-2.69-5.17-3.34-8.42-2.96-2.8.32-4.53 2.26-5.92 4.46-2.84 4.49-2.95 9.4-1.67 14.34.64 2.45 2.3 4.49 4.64 5.55 6.14 2.76 12.96.37 14.56-7.02.36-1.66.34-3.42 1.69-4.44zm149.97 23.66c-.11.74-.17 1.13-.22 1.52-.15 1.29.49 2.11 1.8 2.18.27.01.74-.3.81-.55.92-3.15 1.79-6.32 2.66-9.49.68-2.46 1.5-4.92.95-7.52-.51-2.43-1.35-4.74-3.92-5.76-2.25-.9-4.51-.9-6.76.12-5.04 2.31-8.66 8.74-7.87 14.27.27 1.89.66 3.91 2.56 4.92 3.13 1.67 6.35 3.14 9.98.31zm-48.46-25.88c1.32.54 2.61.88 3.7 1.55 1.64 1.01 2.45 2.66 2.74 4.56.05.31.15.67.36.87.12.11.66.03.74-.12.15-.27.21-.69.1-.97-.45-1.15-.86-2.33-1.48-3.38-1.61-2.73-6.77-4.45-10.11-2.44-4.85 2.92-6.68 8.95-6.16 13.9.05.5.29.99.48 1.47 1.38 3.47 4.19 5.03 7.67 5.49 3.94.53 8.26-2.45 9.16-6.19.07-.3-.24-.7-.37-1.05-.39.17-.81.29-1.15.53-.15.1-.12.45-.2.67-.93 2.85-4.32 4.69-7.19 3.94-.66-.17-.95-.46-.91-1.14.12-1.87.19-3.74.36-5.61.03-.38.31-.81.6-1.09.58-.56 1.29-1.02.07-1.66-.12-.06-.14-.44-.1-.65.52-2.78 1.07-5.55 1.67-8.68zm-90.47 1.97c2.49-.04 2.33 1.66 2.47 3.15.27 2.86.55 5.71.79 8.57.13 1.54.42 1.8 2.05 1.67 1.87-.15 2.27-.56 2.1-2.1-.36-3.37-.71-6.74-1.07-10.11-.08-.75.05-1.32.88-1.59.28-.09.48-.44.71-.66-.28-.18-.54-.45-.84-.51-.76-.15-1.06-.51-1.01-1.3.07-1.23.06-2.47.06-3.71.01-2.84.63-5.52 1.87-8.08.5-1.03 1.15-1.43 2.28-1.13 2.17.57 3.48 2.08 3.9 4.47.07.38.41.7.63 1.05.22-.41.61-.82.62-1.24.06-2.93-1.26-4.74-4.09-5.72-3.59-1.25-6.51.18-7.83 3.72-1.2 3.23-1.67 6.56-1.54 9.98.05 1.32.03 2.48-1.54 2.9-.11.03-.17.24-.45.64zm36.45-1.29c-.12.02-.25.03-.37.05.28-3.24.48-6.48.87-9.7.1-.85.67-1.72 1.21-2.44 1.57-2.12 4.18-1.86 5.34.48.18.36.25.79.51 1.07.28.31.71.48 1.23.8-.03-2.4-1.41-4.88-2.95-5.13-2.38-.37-4.72-.17-6.51 1.79-1.8 1.97-2.55 4.38-2.88 6.96-.27 2.09-.52 4.18-.78 6.22-.77.14-1.43.25-2.09.37-.1.2-.2.4-.31.6.41.24.79.55 1.23.7 1.31.44 1.35 1.42 1.3 2.58-.13 3.15-.18 6.3-.22 9.44 0 .34.13.87.37 1 1.72.9 3.34-.05 3.43-1.95 0-.12 0-.24 0-.36.12-3.03.22-6.06.39-9.09.02-.44.34-.91.62-1.28.41-.53.92-.99 1.39-1.48-.6-.21-1.19-.42-1.79-.63zm125.99 8.39c-.19 1.09-.19 1.85-.46 2.48-2.72 6.3-5.47 12.58-8.24 18.85-.23.52-.63 1-1.04 1.42-.82.83-.77 1.39.29 1.93.92.47 1.88.89 2.81 1.34 1.11.55 1.53.26 1.73-.99.24-1.48.45-2.99.94-4.4 1.99-5.8 4.9-11.17 7.82-16.53.21-.38.74-.58.98-.96.16-.25.17-.9.04-.96-1.56-.75-3.16-1.42-4.87-2.17zm-46.82-9.47c-1.56-.03-1.84.41-1.45 1.68.14.45.17 1.01.04 1.46-1.39 4.71-2.83 9.4-4.25 14.1-.41 1.36-.66 2.72-1.94 3.71-.91.71-.52 1.74.62 2.04.93.24 1.88.39 2.81.6 1.31.3 1.85-.15 1.87-1.51.01-.67.05-1.36.25-1.99 1.12-3.66 2.26-7.32 3.45-10.97.77-2.35.87-4.98 2.82-6.88.46-.44.41-1.09-.36-1.3-1.35-.36-2.71-.67-3.86-.95zm-56.05 17.84c1.87.18 3.45.36 5.03.47.76.05 1.39-1.18 1.05-1.87-.18-.37-.37-.84-.31-1.23.79-5.44 1.62-10.88 2.46-16.32.05-.34.23-.67.41-.96.52-.83.23-1.29-.65-1.42-1.06-.16-2.14-.24-3.2-.34-1.04-.1-1.28.26-.98 1.24.17.56.28 1.2.18 1.77-.62 3.73-1.32 7.45-1.96 11.18-.42 2.5-.42 5.08-2.03 7.49zm18.57-55.47c-.18.06-.35.12-.53.17.07.62.11 1.24.22 1.85.5 2.75.14 5.38-.88 7.97-.51 1.29-.86 2.65-1.22 4-.16.6-.17 1.24-.24 1.86.1.02.19.05.29.07.27-.47.63-.92.79-1.42.76-2.35 1.7-4.67 2.13-7.08.35-1.92.1-3.95.02-5.93-.02-.5-.38-.99-.58-1.49zm-96.47 17.81c2.39-1.62 4.79-15.28 3.52-16.91-.24 1.89-.35 3.96-.78 5.96-.44 2.02-1.26 3.94-1.78 5.95-.42 1.64-.64 3.33-.96 5zm34.51-25.09c-.24.13-.35.16-.36.21-.07.26-.14.53-.17.8-.24 2.43-.85 4.75-1.78 7.03-.72 1.75-1.16 3.65-1.52 5.51-.25 1.28-.16 2.63-.22 3.94.2.02.4.05.6.07.52-5.95 3.66-11.34 3.45-17.57zm52.99 34.64c.02-1.32-.69-2.11-1.89-2.11-1.37 0-2.51 1.37-2.5 2.99 0 1.19.87 2.14 1.96 2.16 1.3.02 2.41-1.36 2.43-3.04zm-22.96 40.55c-6.17-.34-12.28 1.58-18.46.67 6.2 1.33 12.35 1.01 18.46-.67zm73.52-37.44c-1.35-.07-2.54.87-2.63 2.07-.08 1.17.81 2.09 2.06 2.14 1.34.06 2.46-.9 2.54-2.15.07-1.16-.72-1.99-1.98-2.05zm-119.11 38.91c0 .19 0 .37-.01.56h17.09c-.09-.36-.24-.54-.39-.54-5.56-.01-11.13-.01-16.69-.01zm34.73 9.62c2.34.97 10.49-.73 11.36-2.47-3.82.83-7.72 1.68-11.36 2.47zm28.48-.87c0-.11-.01-.22-.02-.33-1.62-.09-3.25-.41-4.88.09-2.37.73-4.77 1.23-7.27 1.05-.59-.04-1.18 0-1.77 0v.33c.4.06.81.13 1.22.19 4.26.56 8.3-1.34 12.53-1.18.06 0 .13-.09.19-.13zm-14.71-81.78c-.75 3.33-1.49 6.67-2.24 10 .13.03.27.06.4.08 1.66-3.12 2.33-6.46 1.84-10.08zm57.22 17.24c-1.81 2.79-3.49 5.37-5.28 8.14 2.14-.72 5.31-5.65 5.28-8.14zm21.45 13.98c2.66-3.33 4.42-7.06 5.15-11.26-1.72 3.75-3.43 7.51-5.15 11.26zm-9.14 54.2c1.05 2 7.59 5.95 9.71 5.06-3.75-.69-6.63-3.05-9.71-5.06zm-47.16.1c2.67 1.57 9.3.82 11.34-1.19-1.93.42-3.69.96-5.49 1.15-1.83.19-3.7.04-5.85.04zm61.79 2.93c.07-.18.13-.36.2-.54-2.8-.91-5.61-1.81-8.41-2.72-.05.15-.11.31-.16.46 2.63 1.39 5.63 1.74 8.37 2.8zm35.27-58.7c-1.13 1.5-1.27 7.03 0 8.51zm-66.32-9.07c-1.43 1.24-2.68 2.32-3.93 3.4 1.73-.11 3.71-1.91 3.93-3.4zm21.8 59.16c-.07.16-.14.33-.22.49 1.12.51 2.24 1.03 3.36 1.54.07-.15.14-.3.21-.46-1.12-.53-2.23-1.05-3.35-1.58z"/><path d="m159.6 64.47c-.19.73-.42 1.46-.56 2.2-1.04 5.39-.79 10.78-.24 16.22.37 3.68.52 7.43.3 11.12-.38 6.41-.15 12.75.79 19.09.39 2.64.78 5.28 1.04 7.93.36 3.74-1.14 6.46-4.59 8.13-5.3 2.57-10.83 4.14-16.74 3.55-2.54-.25-5.03-1.15-7.51-1.86-1.05-.3-1.65-1.05-1.68-2.32-.06-2.99-.18-5.98-.44-8.96-.42-4.84-.99-9.66-1.46-14.5-.62-6.23-1.3-12.46-1.78-18.7-.4-5.17-.17-10.38-1.23-15.5-.35-1.71-.53-3.46-.8-5.19-.03-.21-.14-.41-.22-.62-.11.01-.22.03-.33.04.11 1.42.24 2.83.34 4.25.22 3.22.42 6.45.65 9.68.43 6.17.87 12.34 1.31 18.51.52 7.39 2.01 14.7 1.94 22.16-.03 3.03.3 6.05.44 9.08.01.25-.12.65-.31.76-2.11 1.2-4.13 2.69-6.39 3.46-3.76 1.28-7.67 2.16-11.72 2.01-2.51-.1-5.02-.05-7.43-1-3.36-1.33-5.77-3.64-7.35-6.85-.25-.52-.37-1.13-.41-1.71-.4-5.81-.82-11.61-1.13-17.42-.38-7.21-.68-14.43-.98-21.65-.05-1.19.07-2.39.06-3.58-.02-2.14-.95-3.97-1.85-5.86-.94-1.97-1.57-4.08-2.34-6.13-.14-.38-.31-.75-.46-1.13-.14.04-.27.09-.41.13.49 1.82.67 3.8 1.52 5.43 1.98 3.78 2 7.82 2.18 11.88.31 7.26.66 14.52.99 21.78.24 5.22.49 10.44.74 15.66.02.4-.09.85.05 1.19.59 1.44-.22 2.16-1.32 2.71-2.87 1.44-5.79 2.62-9.15 2.19-1.93-.25-3.9-.18-5.85-.26-.16 0-.32-.04-.47-.07-5.4-1.21-6.29-1.78-7.86-7.08-1.6-5.38-2.73-10.9-4.14-16.34-1.67-6.45-2.33-13.03-2.63-19.66-.22-4.95-1.52-9.7-3.08-14.34-1.03-3.08-2.59-5.98-3.92-8.96-.15-.34-.41-.62-.78-.86 1.91 4.09 3.46 8.29 4.56 12.73-2.22-2.62-4.36-5.14-6.51-7.67-.12.09-.24.18-.36.28.3.41.6.83.91 1.23.34.44.67.89 1.04 1.31 2.3 2.64 4.27 5.53 5.47 8.8.74 2.02 1.17 4.25 1.28 6.41.4 8 1.59 15.87 3.51 23.64.77 3.09-.75 5.9-3.53 7.46-2.58 1.45-5.31 2.35-8.21 2.89.86.59 4.41-.12 7.04-1.14 2.41-.93 4.41-2.21 5.59-4.73.83 3.24 1.65 6.48 2.49 9.77-2.57.44-4.96-.17-7.29-.72-3.02-.72-5.99-1.66-8.96-2.59-4.34-1.38-7.22-4.31-9.09-8.43-3.9-8.59-7.33-17.33-9.53-26.52-1.09-4.55-.98-9.16.16-13.64 1.13-4.47 1.89-8.96 2.3-13.53.29-3.24 1.96-5.51 4.7-7.21 3.45-2.13 7.21-3.2 11.19-3.46 4.36-.28 8.19-1.87 11.42-4.68 3.4-2.97 7.48-3.74 11.71-4.2 2.97-.32 5.96-.44 8.91-.87 2.86-.42 5.31-1.92 7.68-3.49 6.44-4.26 13.28-4.86 20.46-2.28.99.36 1.94.98 2.73 1.68 2.77 2.44 6.05 3.33 9.62 3.24 1.65-.04 3.32-.4 4.94-.8 5.43-1.33 10.65-1.16 15.63 1.68 1.14.65 2.43 1.02 3.61 1.58 1.29.62 2.63 1.19 3.79 2.01 2.45 1.74 5.03 1.72 7.78.98 2.26-.61 4.54-1.26 6.85-1.54 5.54-.67 8.99 2.35 11.24 6.99 1.79 3.69 3.37 7.48 4.94 11.27 1.35 3.25 1.69 6.72 1.9 10.19.46 7.73.72 15.48 1.34 23.2.46 5.74.82 11.47.62 17.22-.13 3.82-.64 7.61-1.79 11.29-.9 2.88-2.77 4.8-5.72 5.37-2.88.56-5.86 1.23-8.74 1.05-2.41-.15-4.78-1.37-7.1-2.29-.36-.14-.57-1.19-.5-1.78.36-3-.55-5.85-.98-8.75-1.03-6.97-1.43-13.95-1.18-20.99.15-4.22-.04-8.47-.45-12.67-.53-5.42-1.07-10.8.06-16.2.04-.2-.03-.43-.05-.64l-.31-.06zm-22.99 16.21c1.97-.28 3.94-.54 5.91-.83s3.95-.61 5.92-.93c2.35-.38 2.43-.39 2.13-2.74-.27-2.13-.56-4.26-2.35-5.84-2.81-2.47-7.47-2.71-11.06-.51-3.34 2.05-5.02 5.15-5.75 8.86-.18.92-.32 1.77-1.4 2.13-.73.25-.65.83-.03 1.1 1.09.49 1.15 1.47 1.43 2.42.97 3.27 2.22 6.35 5.64 7.9 1.95.88 3.97.81 6 .63 4.88-.45 7.18-4.95 7.56-8.88.02-.26-.41-.56-.63-.84-.19.24-.46.45-.56.72-.48 1.25-.72 2.63-1.4 3.74-1.71 2.79-5.32 4.09-8.22 2.04-2.2-1.56-3.89-6.11-3.19-8.98zm-36.23-4.79c.06.95.06 1.9.18 2.84.97 7.88 1.97 15.75 2.92 23.63.08.66-.16 1.37-.26 2.05-.04.26-.25.66-.16.73.21.17.57.29.84.26 1.34-.17 2.69-.38 4.02-.62.73-.13.8-.47.35-1.09-.36-.49-.72-1.08-.78-1.65-.47-4.28-.86-8.57-1.3-12.86-.07-.68.07-1.06.85-1.06 2.77 0 5.33-.87 7.85-1.91 3.02-1.24 4.28-3.46 4.22-7.3-.04-2.7-1.86-4.67-4.64-5.78-2.37-.95-4.9-.93-7.43-.74-2.75.2-5.32.97-7.73 2.3-.37.2-.77.34-1.16.5.15.2.3.4.45.6.57.03 1.14.06 1.78.1zm-35.51 2.62c.49.87 1.01 1.46 1.17 2.13.47 2.02.83 4.07 1.16 6.11.05.31-.18.85-.45 1.01-1.01.62-.5 1.1.17 1.3 1.06.32 1.39 1.09 1.66 1.99.11.38.26.76.4 1.13 2.11 5.49 7.45 7.3 12.49 4.24 1.22-.74 2.15-1.73 2.45-3.12.37-1.71.85-3.47.75-5.18-.2-3.45-.75-6.89-1.18-10.33-.13-1.04-.71-2.15.68-2.95-1.45-.09-2.82-.43-4.32.39.37.25.56.49.72.47 1.27-.16 1.41.66 1.53 1.61s.36 1.88.51 2.82c.57 3.55 1.12 7.09.67 10.71-.32 2.55-2.09 4.83-4.47 5.48-1.5.41-2.22.07-2.78-1.41-.52-1.38-.97-2.78-1.45-4.17-.31-.9-1.13-2.05-.84-2.66.78-1.63-.54-2.46-.9-3.63-.82-2.67-1.6-5.34-.59-8.29-2.88.07-5 1.74-7.38 2.35zm-19.76 22.55c.2.93.27 1.61.51 2.23.11.28.53.64.81.64 2.62-.04 5.17-.42 7.45-1.87 1.88-1.19 2.76-2.89 2.46-5.05-.19-1.4-.59-2.8-1.08-4.14-.7-1.91-1.9-2.47-3.88-1.96-.72.18-1.42.44-2.28.71-1.09-3.36-2.14-6.61-3.17-9.8 2.9-1.98 3.89-1.96 5.28-.02 1.26-.27.63-1.08.48-1.74-.2-.91-.63-1.66-1.72-1.33-1.79.55-3.57 1.14-5.3 1.85-1.45.6-2.76 1.47-3.41 3.02-.96 2.28-1.61 4.56.14 6.78 1.38 1.77 3.35 2.3 5.45 2.64.5.08 1.23.46 1.37.86.74 2.25 1.37 4.55 1.93 6.86.08.33-.36 1.03-.72 1.16-.95.36-1.98.65-2.92-.2-.3-.27-.77-.36-1.38-.63zm122.08-29.54c-.12-.06-.25-.11-.37-.17-.05-1.1-.19-2.21-.14-3.31.05-1.08-.52-1.21-1.25-.91-.88.36-1.74.82-2.51 1.38-.38.27-.74.84-.76 1.29-.06 1.63-.02 3.27.07 4.91.26 4.86.6 9.72.83 14.58.03.63-.39 1.29-.6 1.94-.1.32-.18.64-.27.96.29.05.59.18.86.14 1.58-.22 3.15-.47 4.72-.75.23-.04.56-.26.58-.44.03-.19-.26-.42-.39-.63-.25-.39-.69-.78-.7-1.18-.13-4.98-.21-9.97-.26-14.95 0-.44.14-1.04.45-1.28 1.11-.89 2.21-1.91 3.5-2.41 4.03-1.56 5.51-.73 6.22 3.51.3 1.81.9 1.84 2.44 1.72 1.06-.08 1.39-.69.85-1.52-.99-1.52-1.95-3.1-3.22-4.37-2.08-2.09-6.93-2.34-9.4.64-.23.27-.43.57-.64.86zm-40.58 56.48c-.07-.09-.15-.17-.22-.26-.34.18-.7.33-1 .56-1.98 1.52-4.25 2.46-6.68 2.76-4.9.6-9.83 1.01-14.75 1.49-.4.04-.81 0-1.22 0 0 .12-.01.24-.02.36.36.04.71.13 1.07.12 3.99-.12 7.99-.17 11.97-.43 2.05-.14 4.12-.52 6.1-1.07 1.99-.55 3.59-1.82 4.75-3.55zm-46.58-67.54c2.91-3.68 3.63-17.41 1-19.45-.23 2.35.45 4.44.76 6.54.33 2.23.07 4.36-.41 6.51-.48 2.13-.9 4.27-1.34 6.4zm54.12 66.56c-.02.15-.05.31-.07.46.47.09.94.23 1.41.27 1.27.11 2.54.23 3.82.26 1.99.05 3.99.15 5.96 0 1.58-.12 3.19-.37 4.56-1.41-5.2 1.38-10.45.53-15.68.42zm44.1-3.47c-4.86.16-9.72.88-14.59.02 4.88 2.06 9.74 1.21 14.59-.02zm-66.84-76.58c-.99 3.52-1.97 7.03-2.96 10.55.17.04.35.09.52.13 1.61-3.36 2.51-6.89 2.44-10.68zm-8.35 79c4.05-.31 8.14-.21 12.12-1.21-4.1-.13-8.15.18-12.12 1.21zm-24.61 1.83c4.58.56 8.59-1.21 12.51-3.27-2.24 0-3.95 1.57-6.03 2.02-2.15.47-4.32.84-6.48 1.25zm61.19-7.97c2.11.82 11.59-.35 14.25-1.69-4.89.39-9.46 1.96-14.25 1.69zm-66.63 3.86c.03.18.06.35.09.53 3.46-.5 7-.34 10.42-1.1-.02-.16-.04-.32-.05-.48-3.49.35-6.97.7-10.46 1.05zm-28.72-62.53c1.6-1.55 2.71-7.96 1.69-9.05-.55 2.96-1.13 6.05-1.69 9.05zm107.28-12.59c-.14-.04-.29-.08-.43-.12-.65 2.35-1.3 4.7-1.95 7.05 1.48-2.11 2.08-4.48 2.38-6.93zm-65.47 68.89c-.04-.17-.07-.33-.11-.5-1.42.33-2.83.66-4.25 1 .03.14.07.28.1.43l4.25-.92z"/><path d="m192.86 128.46c-1.72 2.04-2.77 4.62-3.18 7.51 1.33-2.36 2.66-4.72 3.97-7.04 1.4.56 2.56 1.05 3.74 1.5 2.51.95 5.12 1.34 7.75.9 3.06-.52 6.09-1.21 9.09-1.97 1.97-.5 3.35-1.96 4.66-3.43.45-.5.82-1.06 1.24-1.62 1.42.79 2.8 1.56 4.19 2.33-3.3 3.25-4.63 6.56-4.29 10.45.59-1.78 1.22-3.68 1.85-5.58.68-2.05 2.07-3.49 4.04-4.24.74-.28 1.68-.05 2.47-.05-.65 2.01-1.25 3.84-1.84 5.66.12.05.24.09.37.14.16-.34.34-.66.48-1.01.17-.4.29-.82.45-1.23 1.18-3.16 1.34-3.19 4.69-3.23 2.78-.03 5.57-.21 8.35-.42 2.9-.22 5.01-1.71 6.31-4.3.36-.72.87-1.05 1.66-1.12 3.49-.34 6.99-1.07 10.44.15 1.48.53 2.88 1.29 4.32 1.95-.04.1-.08.19-.12.29-.7-.19-1.4-.41-2.11-.56-1.88-.38-3.74-.38-5.49.55-2.77 1.49-5.63 2.83-8.25 4.56-3.25 2.15-4.85 5.95-2.39 10.39 1.24 2.23 2.28 4.56 3.5 6.8.43.8 1.09 1.47 1.87 2.49-.08.05-.48.2-.75.47-1.57 1.64-3.31 3.18-4.63 5.01-2.41 3.34-5.62 5.39-9.49 6.5-1.61.46-3.26.76-4.89 1.14-1.31.31-2.28-.17-2.92-1.3-.55-.97-1.03-1.97-1.54-2.96-.18-.34-.33-.7-.49-1.05-.13.06-.26.11-.39.17.71 1.68 1.41 3.36 2.17 5.16-1.23-.28-2.56-.53-3.87-.88-6.81-1.83-13.65-3.59-20.41-5.58-4.11-1.21-7.94-3.13-11.37-5.77-2.95-2.27-4.92-5.1-5.22-8.91-.05-.71-.14-1.49.08-2.13.95-2.71.35-5.36-.14-8.02-.24-1.29-.49-2.59-.9-3.83-.91-2.75-.29-5.25.87-7.53 1.97 3.11 3.99 6.29 6.11 9.64zm26.11 28.9c-1.4-5.77-1.94-11.58-.63-17.47-2.01 2.76-1.61 14.45.63 17.47zm19.66-21.05c-.21.1-.42.2-.62.3 1.85 4.02 3.7 8.04 5.55 12.06.17-.08.34-.15.51-.23-.83-4.49-4.35-7.76-5.43-12.14z"/><path d="m184.24 125.36c.38 3.77 2.86 7.12 1.84 10.92-1.84 6.8-5.24 12.46-12.1 15.41-5.47 2.36-11.06 4.37-16.79 6-.14.04-.29.05-.41.07.33-1.66.65-3.26.97-4.86-.14-.04-.28-.08-.42-.12-.16.38-.34.74-.46 1.13-.22.73-.4 1.46-.59 2.2-.39 1.53-1.2 2.59-2.82 3.07-1.39.41-2.71 1.11-4.32 1.79 1.77-5.18.66-10.07-.08-14.97-.15 0-.29.02-.44.03.22 2.07.4 4.14.69 6.2.4 2.84.08 5.58-.96 8.22-.21.54-.81 1.06-1.36 1.29-1.08.46-2.25.7-3.51 1.08-.24-3.45-.46-6.74-.68-10.03-.12 0-.24-.02-.35-.03-.04.25-.12.5-.11.75.09 2.55.23 5.1.28 7.66.04 1.78-.11 1.95-1.9 1.77-3.41-.36-6.66-1.41-9.59-3.16-2.87-1.72-5.59-3.7-8.36-5.59-1.78-1.21-3.53-2.44-5.39-3.73 1.35-.2 1.8-1.07 1.99-2.28.41-2.69 1.07-5.3 2.38-7.73 1.03-1.91.51-3.8-.51-5.41 2.29-1.15 4.59-2.15 6.73-3.44 1.13-.68 1.88-.6 2.96.01 2.81 1.61 5.93 2.31 9.13 2.62 1.26.12 2.55 0 3.82.06.34.02.8.19.99.45.91 1.24 1.77 2.52 2.62 3.81.29.44.51.94.92 1.34-.05-2.18-.51-4.18-2.45-5.77 2.17-.34 4.26-1.33 6.17.09 1.68 1.25 3.15 2.8 4.91 4.39-1.16-2.61-2.89-4.39-5.29-5.81 3.93-1.4 7.55-3.02 10.19-6.16 3.65 1.68 7.16 3.53 11.35 2.67 3.81-.78 7.82-.92 11-3.94z"/><path d="m259.68 124.32c3.14-.31 4.73 1.97 6.36 3.92 1.51 1.8 2.61 3.89 2.91 6.32.14 1.08-.09 1.93-.95 2.52-1.64 1.13-3.3 2.23-5.01 3.25-3.48 2.09-7.01 4.11-10.5 6.2-1.15.69-1.93.59-2.55-.62-1.36-2.66-2.74-5.31-3.97-8.02-1.56-3.43-1-5.58 1.86-8.08 2.78-2.43 6.04-3.98 9.48-5.2.73-.26 1.56-.21 2.35-.3z"/><path d="m97.55 132.26c4.12 3.76 8.85 4.45 13.84 4.04 2.58-.21 5.14-.67 7.7-1.06.7-.11 1.12.08 1.46.69.88 1.6 1.13 3.17.22 4.89-1.22 2.3-2.16 4.72-2.35 7.36-.07 1.02-.63 1.33-1.54 1.09-1.61-.43-3.24-.84-4.82-1.37-2.8-.93-5.63-1.81-8.33-2.98-1.86-.81-3.84-1.77-5.22-3.2-2.6-2.69-1.7-6.02-.97-9.46z"/><path d="m268.38 130.01c-1.28-1.73-2.4-3.25-3.57-4.82 1.25.58 2.87 2.73 3.57 4.82z"/></g><path d="m213.38 81.62c-1.34 1.02-1.33 2.77-1.69 4.44-1.59 7.4-8.41 9.78-14.56 7.02-2.35-1.05-4.01-3.09-4.64-5.55-1.28-4.94-1.18-9.85 1.67-14.34 1.39-2.2 3.12-4.14 5.92-4.46 3.25-.37 6.27.28 8.42 2.96 1.97 2.46 3.41 5.2 3.65 8.45.03.46.72.88 1.24 1.47zm-4.7.23q2.08-1.26 1.58-3.32c-.18-.74-.37-1.47-.61-2.19-1.25-3.67-3.56-6.08-7.63-6.42-1.07-.09-1.48.21-1.49 1.3-.02 2.51-.03 5.03 0 7.54.02 1.26.05 2.58 1.31 3.1-.32.9-.87 1.7-.83 2.47.12 2.46.45 4.9.73 7.35.09.8.59 1.12 1.43 1.04 3.9-.38 7.11-3.67 7.4-7.72.09-1.32.74-3-1.9-3.15zm-15.11-.68h5.19c.8 0 .73-.53.72-1.06-.06-1.99-.12-3.98-.16-5.97-.02-1.2 0-2.41 0-3.68-3.93 1.49-6.48 6.36-5.75 10.71z"/><path d="m363.35 105.28c-3.63 2.82-6.85 1.36-9.98-.31-1.9-1.02-2.29-3.04-2.56-4.92-.79-5.52 2.83-11.95 7.87-14.27 2.24-1.03 4.51-1.02 6.76-.12 2.57 1.03 3.4 3.33 3.92 5.76.55 2.6-.27 5.06-.95 7.52-.87 3.17-1.74 6.34-2.66 9.49-.07.25-.54.56-.81.55-1.31-.07-1.95-.89-1.8-2.18.04-.39.11-.78.22-1.52zm4.64-12.72c.25-2.86-2.15-5.1-4.17-5.04-2.15.06-3.96.85-5.3 2.58-1.57 2.03-2.6 4.33-2.85 6.86-.14 1.38-.01 2.87.37 4.2.58 2.02 2.99 3.28 4.96 2.81 1.98-.47 3.52-1.57 4.66-3.28 1.65-2.47 2.08-5.27 2.32-8.13zm-14.48 1.25c1.57.6 1.58.61 2.15-.79.98-2.37 2.34-4.44 4.62-5.77.25-.14.46-.34.85-.63-3.86.74-7.1 3.84-7.62 7.19z"/><path d="m314.89 79.4c-.61 3.13-1.15 5.91-1.67 8.68-.04.21-.01.59.1.65 1.22.63.51 1.09-.07 1.66-.29.28-.57.71-.6 1.09-.16 1.87-.23 3.74-.36 5.61-.04.68.24.97.91 1.14 2.87.75 6.26-1.09 7.19-3.94.07-.23.05-.57.2-.67.34-.24.76-.36 1.15-.53.13.35.45.75.37 1.05-.9 3.75-5.22 6.72-9.16 6.19-3.48-.47-6.3-2.02-7.67-5.49-.19-.48-.42-.97-.48-1.47-.52-4.95 1.3-10.98 6.16-13.9 3.33-2.01 8.5-.29 10.11 2.44.62 1.05 1.04 2.23 1.48 3.38.11.28.05.7-.1.97-.08.15-.62.23-.74.12-.21-.19-.31-.56-.36-.87-.29-1.9-1.1-3.55-2.74-4.56-1.09-.67-2.38-1.01-3.7-1.55zm-1.3.45c-3.47.66-6.53 4.05-6.72 7.31-.02.26.42.73.71.79 1.17.24 2.36.34 3.54.53.66.11.94-.15 1.04-.79.19-1.22.43-2.43.65-3.65.25-1.36.5-2.71.78-4.2z"/><path d="m224.42 81.37c.28-.4.34-.61.45-.64 1.57-.42 1.59-1.59 1.54-2.9-.13-3.42.33-6.75 1.54-9.98 1.32-3.54 4.24-4.97 7.83-3.72 2.82.98 4.15 2.79 4.09 5.72 0 .42-.41.82-.62 1.24-.22-.35-.56-.68-.63-1.05-.41-2.39-1.73-3.9-3.9-4.47-1.13-.3-1.79.1-2.28 1.13-1.24 2.56-1.85 5.25-1.87 8.08 0 1.24 0 2.48-.06 3.71-.05.79.25 1.16 1.01 1.3.3.06.56.33.84.51-.24.23-.43.58-.71.66-.84.27-.97.84-.88 1.59.36 3.37.71 6.74 1.07 10.11.17 1.54-.23 1.94-2.1 2.1-1.63.13-1.92-.13-2.05-1.67-.24-2.86-.52-5.71-.79-8.57-.14-1.49.03-3.19-2.47-3.15zm6.79-15.77-.54-.14c-3.06 4.42-2.59 9.5-2.51 14.49 1.09.33 1.16-.14 1.23-.93.31-3.68.69-7.36 1.11-11.04.09-.81.46-1.58.71-2.37z"/><path d="m260.87 80.08c.6.21 1.19.42 1.79.63-.47.49-.98.95-1.39 1.48-.29.37-.6.84-.62 1.28-.17 3.03-.27 6.06-.39 9.09v.36c-.09 1.91-1.71 2.86-3.43 1.95-.24-.12-.37-.66-.37-1 .04-3.15.09-6.3.22-9.44.05-1.16.01-2.13-1.3-2.58-.44-.15-.82-.46-1.23-.7.1-.2.2-.4.31-.6.66-.12 1.32-.23 2.09-.37.25-2.04.51-4.13.78-6.22.34-2.58 1.08-4.99 2.88-6.96 1.79-1.96 4.13-2.17 6.51-1.79 1.54.24 2.92 2.73 2.95 5.13-.52-.32-.95-.49-1.23-.8-.26-.28-.33-.72-.51-1.07-1.16-2.33-3.77-2.59-5.34-.48-.54.72-1.1 1.59-1.21 2.44-.39 3.22-.6 6.46-.87 9.7.12-.02.25-.03.37-.05zm-1.78.16c.27-3.73.54-7.35.78-10.65-1.74 3.07-1.47 6.92-2.27 10.65z"/><path d="m386.86 88.47c1.72.75 3.31 1.42 4.87 2.17.12.06.11.72-.04.96-.24.38-.77.58-.98.96-2.92 5.36-5.83 10.74-7.82 16.53-.48 1.41-.7 2.92-.94 4.4-.2 1.25-.62 1.53-1.73.99-.93-.46-1.88-.87-2.81-1.34-1.06-.55-1.11-1.1-.29-1.93.41-.41.8-.89 1.04-1.42 2.77-6.27 5.53-12.56 8.24-18.85.27-.63.27-1.38.46-2.48zm3.26 2.62c-.36-.2-.71-.54-1.06-.54-.37 0-.92.25-1.07.55-1.33 2.67-2.58 5.39-3.89 8.07-.34.69-.09.98.51 1.29.68.35.92 0 1.17-.52 1.31-2.68 2.65-5.36 3.97-8.04.11-.21.2-.43.37-.82z"/><path d="m340.04 79c1.15.28 2.52.58 3.86.95.77.21.82.85.36 1.3-1.95 1.9-2.05 4.53-2.82 6.88-1.2 3.64-2.33 7.3-3.45 10.97-.19.63-.24 1.33-.25 1.99-.02 1.36-.56 1.81-1.87 1.51-.93-.22-1.88-.36-2.81-.6-1.13-.3-1.52-1.33-.62-2.04 1.27-.99 1.53-2.36 1.94-3.71 1.42-4.7 2.86-9.39 4.25-14.1.13-.45.1-1.01-.04-1.46-.4-1.27-.12-1.71 1.45-1.68zm2.2 2.31c-1.36-.64-1.81-.65-2.05.05-.77 2.17-1.5 4.36-2.18 6.56-.08.25.29.89.5.91.41.04 1.13-.13 1.23-.39.89-2.33 1.67-4.7 2.51-7.13z"/><path d="m283.99 96.84c1.61-2.41 1.61-5 2.03-7.49.63-3.73 1.34-7.45 1.96-11.18.09-.57-.01-1.21-.18-1.77-.3-.98-.06-1.34.98-1.24 1.07.1 2.14.18 3.2.34.88.13 1.17.59.65 1.42-.19.29-.36.63-.41.96-.84 5.44-1.67 10.87-2.46 16.32-.06.39.12.86.31 1.23.34.69-.29 1.92-1.05 1.87-1.58-.11-3.16-.29-5.03-.47zm7.25-20.12c-.9.21-2.02.25-2.08.53-.53 2.39-.86 4.82-1.28 7.35.69.08 1.26.14 1.87.21.48-2.63.95-5.15 1.49-8.09z"/><path d="m302.56 41.37c.2.5.56.99.58 1.49.07 1.98.32 4.01-.02 5.93-.43 2.41-1.37 4.73-2.13 7.08-.16.51-.52.95-.79 1.42-.1-.02-.19-.05-.29-.07.08-.62.08-1.26.24-1.86.36-1.35.71-2.7 1.22-4 1.02-2.59 1.38-5.22.88-7.97-.11-.61-.15-1.23-.22-1.85.18-.06.35-.12.53-.17z"/><path d="m206.09 59.18c.31-1.67.53-3.36.96-5 .52-2 1.34-3.93 1.78-5.95.43-2 .55-4.07.78-5.96 1.28 1.63-1.13 15.29-3.52 16.91z"/><path d="m240.6 34.09c.21 6.23-2.92 11.63-3.45 17.57-.2-.02-.4-.05-.6-.07.06-1.32-.03-2.66.22-3.94.36-1.87.8-3.76 1.52-5.51.93-2.28 1.54-4.59 1.78-7.03.03-.27.1-.54.17-.8.01-.05.13-.08.36-.21z"/><path d="m293.59 68.73c-.03 1.68-1.14 3.07-2.43 3.04-1.09-.02-1.95-.97-1.96-2.16 0-1.62 1.13-2.99 2.5-2.99 1.21 0 1.92.79 1.89 2.11zm-.94.59c.1-.13.19-.27.29-.4-.31-.39-.65-1.12-.92-1.09-.55.05-1.05.51-1.58.81.05.13.11.27.16.4.68.1 1.37.19 2.05.29z"/><path d="m270.63 109.28c-6.11 1.69-12.26 2-18.46.67 6.19.9 12.29-1.01 18.46-.67z"/><path d="m344.15 71.84c1.26.06 2.05.89 1.98 2.05-.08 1.26-1.2 2.21-2.54 2.15-1.26-.05-2.14-.98-2.06-2.14.08-1.2 1.28-2.14 2.63-2.07zm-1.3 1.78c.39.15.75.36 1.12.41.33.04.69-.1 1.04-.17-.18-.39-.27-.96-.57-1.12-.76-.41-1.36-.15-1.58.88z"/><path d="m225.04 110.75c5.56 0 11.13 0 16.69.01.15 0 .29.18.39.54h-17.09c0-.19 0-.37.01-.56z"/><path d="m259.77 120.37c3.64-.79 7.54-1.64 11.36-2.47-.87 1.74-9.02 3.44-11.36 2.47z"/><path d="m288.25 119.5c-.06.05-.13.14-.19.13-4.23-.17-8.26 1.73-12.53 1.18-.41-.05-.82-.13-1.23-.19v-.33c.6 0 1.19-.04 1.77 0 2.5.18 4.9-.32 7.27-1.05 1.64-.5 3.26-.17 4.88-.09 0 .11.01.22.02.33z"/><path d="m273.54 37.72c.49 3.62-.18 6.96-1.84 10.08-.13-.03-.27-.06-.4-.08.75-3.33 1.49-6.67 2.24-10z"/><path d="m330.76 54.96c.03 2.49-3.14 7.42-5.28 8.14 1.8-2.77 3.47-5.35 5.28-8.14z"/><path d="m352.21 68.94c1.72-3.75 3.43-7.51 5.15-11.26-.73 4.2-2.49 7.93-5.15 11.26z"/><path d="m343.07 123.14c3.08 2.01 5.96 4.37 9.71 5.06-2.11.88-8.65-3.07-9.71-5.06z"/><path d="m295.91 123.24c2.15 0 4.02.15 5.85-.04 1.8-.19 3.56-.73 5.49-1.15-2.03 2-8.67 2.76-11.34 1.19z"/><path d="m357.7 126.17c-2.75-1.06-5.74-1.41-8.37-2.8.05-.15.11-.31.16-.46 2.8.91 5.61 1.81 8.41 2.72-.07.18-.13.36-.2.54z"/><path d="m392.97 67.47v8.51c-1.27-1.49-1.13-7.01 0-8.51z"/><path d="m326.65 58.4c-.22 1.49-2.2 3.29-3.93 3.4 1.25-1.08 2.5-2.16 3.93-3.4z"/><path d="m348.45 117.56c1.12.53 2.23 1.05 3.35 1.58-.07.15-.14.3-.21.46-1.12-.51-2.24-1.03-3.36-1.54.07-.16.14-.33.22-.49z"/><path d="m136.61 80.68c-.7 2.87.99 7.42 3.19 8.98 2.9 2.05 6.51.76 8.22-2.04.68-1.12.92-2.5 1.4-3.74.11-.27.37-.48.56-.72.22.28.66.58.63.84-.37 3.93-2.67 8.43-7.56 8.88-2.03.19-4.05.26-6-.63-3.42-1.55-4.68-4.63-5.64-7.9-.28-.95-.34-1.93-1.43-2.42-.62-.28-.7-.86.03-1.1 1.08-.36 1.22-1.21 1.4-2.13.72-3.72 2.41-6.82 5.75-8.86 3.59-2.2 8.25-1.96 11.06.51 1.79 1.58 2.08 3.71 2.35 5.84.3 2.35.22 2.36-2.13 2.74-1.97.31-3.94.63-5.92.93-1.97.29-3.95.56-5.91.83zm-.18-1.4c.31.03.47.08.62.05 3.65-.58 7.31-1.14 10.95-1.82.41-.08.94-.85.97-1.33.16-2.47-1.68-4.78-4.26-5.56-2.26-.68-5.65.41-6.72 2.28-1.11 1.93-1.6 4.05-1.55 6.38zm-3.71.72c1.89.02 2.25-.28 2.41-1.94.01-.12.05-.23.07-.35.37-2.83 1.58-5.25 3.61-7.35-3.48.84-6.46 6.91-6.09 9.64z"/><path d="m100.38 75.89c-.65-.04-1.21-.07-1.78-.1-.15-.2-.3-.4-.45-.6.39-.17.79-.3 1.16-.5 2.41-1.34 4.98-2.1 7.73-2.3 2.52-.19 5.06-.2 7.43.74 2.78 1.11 4.6 3.08 4.64 5.78.06 3.84-1.2 6.05-4.22 7.3-2.52 1.04-5.09 1.9-7.85 1.91-.78 0-.92.38-.85 1.06.44 4.29.82 8.58 1.3 12.86.06.58.42 1.17.78 1.65.45.61.38.96-.35 1.09-1.33.24-2.68.45-4.02.62-.27.04-.62-.08-.84-.26-.09-.07.12-.47.16-.73.11-.68.34-1.39.26-2.05-.95-7.88-1.95-15.75-2.92-23.63-.12-.94-.12-1.89-.18-2.84zm5.2 4.44s-.02 0-.04 0c.11 1.71.25 3.42.3 5.13.03.93.36 1.32 1.31 1.14 1.68-.31 3.41-.44 5.05-.89 1.59-.44 3.23-.95 4.3-2.39 1.34-1.81 1.4-3.78.56-5.78-.88-2.07-2.45-3.39-4.74-3.48-2.03-.08-4.06.08-6.09.12-.75.02-1.04.34-.97 1.13.15 1.67.22 3.34.32 5.01zm-1.44-5.64c-1.94.13-2.48.72-2.33 2.38.22 2.5.4 5.01.61 7.51.06.74.19 1.47.29 2.18 2.09.06 2.03.06 1.91-1.83-.18-2.94-.27-5.89-.4-8.84-.02-.47-.05-.93-.07-1.4z"/><path d="m64.87 78.51c2.38-.61 4.5-2.28 7.38-2.35-1 2.95-.23 5.62.59 8.29.36 1.17 1.68 2 .9 3.63-.29.61.53 1.76.84 2.66.48 1.39.93 2.8 1.45 4.17.56 1.48 1.28 1.82 2.78 1.41 2.38-.65 4.15-2.93 4.47-5.48.45-3.62-.1-7.16-.67-10.71-.15-.94-.39-1.88-.51-2.82-.12-.95-.26-1.76-1.53-1.61-.16.02-.35-.22-.72-.47 1.49-.82 2.86-.47 4.32-.39-1.39.81-.81 1.91-.68 2.95.43 3.44.98 6.87 1.18 10.33.1 1.71-.39 3.47-.75 5.18-.3 1.38-1.23 2.37-2.45 3.12-5.04 3.06-10.38 1.26-12.49-4.24-.14-.37-.29-.75-.4-1.13-.27-.9-.6-1.68-1.66-1.99-.67-.2-1.18-.68-.17-1.3.27-.16.5-.69.45-1.01-.33-2.05-.69-4.1-1.16-6.11-.16-.68-.68-1.27-1.17-2.13zm2.5 1.11c.43 2.3.68 4.66 1.36 6.89.4 1.32 1.53 0 2.34.04.29.02.61-.52.9-.81.03-.03-.05-.14-.07-.22-.45-2.29-.89-4.58-1.35-6.87-.06-.29-.17-.67-.38-.81-.6-.37-2.69 1.03-2.8 1.78z"/><path d="m45.11 101.06c.61.27 1.08.36 1.38.63.94.85 1.97.56 2.92.2.35-.13.79-.83.72-1.16-.56-2.31-1.18-4.6-1.93-6.86-.13-.4-.86-.78-1.37-.86-2.09-.34-4.06-.87-5.45-2.64-1.74-2.22-1.09-4.5-.14-6.78.65-1.55 1.95-2.42 3.41-3.02 1.73-.71 3.51-1.3 5.3-1.85 1.08-.33 1.51.42 1.72 1.33.15.66.78 1.47-.48 1.74-1.39-1.95-2.38-1.96-5.28.02 1.03 3.2 2.09 6.44 3.17 9.8.87-.27 1.57-.52 2.28-.71 1.98-.5 3.18.05 3.88 1.96.49 1.34.89 2.73 1.08 4.14.29 2.16-.59 3.86-2.46 5.05-2.28 1.45-4.83 1.83-7.45 1.87-.27 0-.7-.35-.81-.64-.23-.62-.31-1.3-.51-2.23zm-.07-18.96c-2.45.83-3.86 3.64-3.23 6.15.6 2.38 2.98 3.86 5.56 3.39-.77-3.16-1.54-6.31-2.33-9.54z"/><path d="m167.19 71.52c.21-.29.41-.58.64-.86 2.47-2.98 7.32-2.73 9.4-.64 1.26 1.27 2.23 2.86 3.22 4.37.54.83.2 1.43-.85 1.52-1.55.12-2.14.09-2.44-1.72-.71-4.24-2.19-5.07-6.22-3.51-1.29.5-2.39 1.53-3.5 2.41-.3.24-.45.85-.45 1.28.05 4.98.13 9.97.26 14.95.01.4.46.79.7 1.18.14.22.42.44.39.63-.03.18-.36.4-.58.44-1.57.28-3.14.53-4.72.75-.27.04-.57-.09-.86-.14.09-.32.17-.64.27-.96.2-.65.63-1.3.6-1.94-.23-4.86-.56-9.72-.83-14.58-.09-1.63-.13-3.27-.07-4.91.02-.45.38-1.02.76-1.29.77-.55 1.63-1.02 2.51-1.38.74-.3 1.3-.17 1.25.91-.05 1.1.08 2.2.14 3.31.12.06.25.11.37.17zm-3.54 8.54c2.27-.16 2.45-.38 2.19-2.42-.06-.47-.06-.95-.07-1.43-.02-2.19-.01-4.38-.06-6.57 0-.35-.11-.86-.36-1.02-.58-.39-2.31.65-2.28 1.37.16 3.34.37 6.67.57 10.07zm14.3-7.85c.17.84.22 1.38.4 1.88.08.24.38.43.63.56.11.06.48-.12.48-.17-.02-.29-.06-.63-.22-.85-.31-.43-.71-.8-1.28-1.42z"/><path d="m126.61 128c-1.16 1.73-2.76 3-4.75 3.55-1.98.55-4.05.93-6.1 1.07-3.98.26-7.98.31-11.97.43-.35.01-.71-.08-1.07-.12 0-.12.01-.24.02-.36.41 0 .82.03 1.22 0 4.92-.48 9.85-.89 14.75-1.49 2.43-.3 4.7-1.24 6.68-2.76.3-.23.67-.37 1-.56.07.09.15.17.22.26z"/><path d="m80.03 60.46c.45-2.13.86-4.27 1.34-6.4.49-2.15.74-4.28.41-6.51-.31-2.1-.99-4.19-.76-6.54 2.63 2.04 1.91 15.77-1 19.45z"/><path d="m134.15 127.02c5.23.11 10.48.96 15.68-.42-1.37 1.04-2.99 1.29-4.56 1.41-1.98.15-3.98.05-5.96 0-1.27-.03-2.55-.15-3.82-.26-.47-.04-.94-.18-1.41-.27.02-.15.05-.31.07-.46z"/><path d="m178.25 123.55c-4.86 1.23-9.72 2.07-14.59.02 4.87.87 9.73.14 14.59-.02z"/><path d="m111.41 46.97c.08 3.78-.83 7.32-2.44 10.68-.17-.04-.35-.09-.52-.13.99-3.52 1.97-7.03 2.96-10.55z"/><path d="m103.06 125.97c3.97-1.03 8.02-1.34 12.12-1.21-3.97 1-8.06.9-12.12 1.21z"/><path d="m78.45 127.8c2.16-.41 4.33-.78 6.48-1.25 2.08-.46 3.79-2.03 6.03-2.02-3.92 2.06-7.93 3.83-12.51 3.27z"/><path d="m139.64 119.83c4.79.27 9.36-1.3 14.25-1.69-2.66 1.34-12.14 2.51-14.25 1.69z"/><path d="m73.01 123.69c3.49-.35 6.97-.7 10.46-1.05.02.16.04.32.05.48-3.43.76-6.96.6-10.42 1.1-.03-.18-.06-.35-.09-.53z"/><path d="m44.29 61.16c.56-3 1.14-6.09 1.69-9.05 1.02 1.09-.09 7.5-1.69 9.05z"/><path d="m151.57 48.57c-.3 2.46-.91 4.82-2.38 6.93.65-2.35 1.3-4.7 1.95-7.05.14.04.29.08.43.12z"/><path d="m86.1 117.46-4.25.92c-.03-.14-.07-.28-.1-.43 1.42-.33 2.83-.66 4.25-1 .04.17.07.33.11.5z"/><path d="m218.97 157.36c-2.24-3.02-2.63-14.71-.63-17.47-1.32 5.89-.77 11.7.63 17.47z"/><path d="m238.63 136.31c1.08 4.37 4.6 7.65 5.43 12.14-.17.08-.34.15-.51.23-1.85-4.02-3.7-8.04-5.55-12.06.21-.1.42-.2.62-.3z"/><g fill="#fff"><path d="m208.68 81.85c2.64.15 1.99 1.83 1.9 3.15-.29 4.05-3.5 7.34-7.4 7.72-.84.08-1.33-.24-1.43-1.04-.28-2.45-.61-4.89-.73-7.35-.04-.77.51-1.57.83-2.47-1.27-.53-1.29-1.84-1.31-3.1-.04-2.51-.02-5.03 0-7.54 0-1.09.42-1.39 1.49-1.3 4.07.34 6.38 2.75 7.63 6.42.24.72.43 1.45.61 2.19q.5 2.06-1.58 3.32z"/><path d="m193.57 81.17c-.73-4.35 1.82-9.22 5.75-10.71 0 1.28-.02 2.48 0 3.68.04 1.99.1 3.98.16 5.97.02.54.09 1.07-.72 1.06-1.71-.01-3.41 0-5.19 0z"/><path d="m367.99 92.56c-.24 2.86-.67 5.66-2.32 8.13-1.14 1.71-2.68 2.81-4.66 3.28-1.96.46-4.38-.79-4.96-2.81-.38-1.33-.51-2.82-.37-4.2.25-2.53 1.28-4.83 2.85-6.86 1.34-1.73 3.15-2.52 5.3-2.58 2.02-.06 4.42 2.18 4.17 5.04z"/><path d="m353.51 93.81c.52-3.35 3.76-6.45 7.62-7.19-.39.29-.6.48-.85.63-2.28 1.34-3.64 3.4-4.62 5.77-.57 1.39-.58 1.39-2.15.79z"/><path d="m313.59 79.85c-.28 1.49-.53 2.85-.78 4.2-.22 1.21-.47 2.43-.65 3.65-.1.64-.38.9-1.04.79-1.18-.19-2.37-.29-3.54-.53-.29-.06-.72-.53-.71-.79.19-3.26 3.25-6.65 6.72-7.31z"/><path d="m231.21 65.6c-.24.79-.61 1.56-.71 2.37-.42 3.67-.8 7.35-1.11 11.04-.07.79-.14 1.26-1.23.93-.09-4.99-.55-10.07 2.51-14.49l.54.14z"/><path d="m259.09 80.24h-1.49c.8-3.73.53-7.59 2.27-10.65-.24 3.3-.51 6.93-.78 10.65z"/><path d="m390.12 91.09c-.17.38-.26.6-.37.82-1.32 2.68-2.65 5.35-3.97 8.04-.26.53-.5.87-1.17.52-.6-.31-.85-.59-.51-1.29 1.31-2.68 2.56-5.4 3.89-8.07.15-.3.7-.54 1.07-.55.35 0 .7.34 1.06.54z"/><path d="m342.24 81.31c-.84 2.43-1.62 4.8-2.51 7.13-.1.27-.82.43-1.23.39-.2-.02-.57-.66-.5-.91.67-2.2 1.41-4.39 2.18-6.56.25-.7.7-.68 2.05-.05z"/><path d="m291.24 76.72c-.54 2.93-1 5.45-1.49 8.09-.61-.07-1.18-.13-1.87-.21.41-2.53.75-4.96 1.28-7.35.06-.28 1.19-.32 2.08-.53z"/><path d="m292.65 69.32c-.68-.1-1.37-.19-2.05-.29-.05-.13-.11-.27-.16-.4.52-.29 1.03-.75 1.58-.81.27-.03.61.7.92 1.09-.1.13-.19.27-.29.4z"/><path d="m342.85 73.62c.22-1.02.82-1.29 1.58-.88.3.16.39.74.57 1.12-.35.06-.7.21-1.04.17-.37-.04-.72-.26-1.12-.41z"/><path d="m136.43 79.28c-.05-2.33.44-4.45 1.55-6.38 1.08-1.87 4.47-2.96 6.72-2.28 2.59.78 4.42 3.09 4.26 5.56-.03.48-.56 1.26-.97 1.33-3.64.68-7.3 1.23-10.95 1.82-.15.02-.31-.02-.62-.05z"/><path d="m132.72 80c-.37-2.74 2.61-8.8 6.09-9.64-2.03 2.1-3.24 4.52-3.61 7.35-.02.12-.06.23-.07.35-.15 1.67-.51 1.97-2.41 1.94z"/><path d="m105.58 80.33c-.1-1.67-.17-3.35-.32-5.01-.07-.79.22-1.11.97-1.13 2.03-.04 4.07-.2 6.09-.12 2.3.09 3.87 1.41 4.74 3.48.84 2 .78 3.97-.56 5.78-1.07 1.44-2.71 1.95-4.3 2.39-1.64.46-3.37.59-5.05.89-.95.17-1.28-.21-1.31-1.14-.05-1.71-.2-3.42-.3-5.13h.04z"/><path d="m104.14 74.69c.03.47.05.93.07 1.4.13 2.95.21 5.9.4 8.84.12 1.89.18 1.89-1.91 1.83-.09-.71-.22-1.44-.29-2.18-.22-2.5-.4-5.01-.61-7.51-.14-1.66.39-2.25 2.33-2.38z"/><path d="m67.37 79.62c.11-.74 2.2-2.14 2.8-1.78.21.13.32.52.38.81.46 2.29.9 4.58 1.35 6.87.02.08.09.19.07.22-.29.3-.61.83-.9.81-.8-.04-1.94 1.28-2.34-.04-.68-2.23-.93-4.59-1.36-6.89z"/><path d="m45.04 82.1c.79 3.24 1.56 6.39 2.33 9.54-2.58.47-4.97-1.01-5.56-3.39-.63-2.52.78-5.32 3.23-6.15z"/><path d="m163.65 80.06c-.2-3.4-.41-6.74-.57-10.07-.04-.72 1.69-1.76 2.28-1.37.24.16.35.67.36 1.02.04 2.19.04 4.38.06 6.57 0 .48 0 .96.07 1.43.26 2.04.08 2.26-2.19 2.42z"/><path d="m177.95 72.21c.57.62.97.99 1.28 1.42.16.22.19.56.22.85 0 .05-.37.23-.48.17-.25-.13-.54-.32-.63-.56-.18-.5-.23-1.04-.4-1.88z"/></g></svg>