<?xml version="1.0" encoding="iso-8859-1"?>
<!-- Generator: Adobe Illustrator 19.0.0, SVG Export Plug-In . SVG Version: 6.00 Build 0)  -->
<svg version="1.1" id="Capa_1" xmlns="http://www.w3.org/2000/svg" xmlns:xlink="http://www.w3.org/1999/xlink" x="0px" y="0px"
	 viewBox="0 0 512.002 512.002" style="enable-background:new 0 0 512.002 512.002;" xml:space="preserve">
<g>
	<g>
		<path d="M151.57,208.93c-1.86-1.86-4.44-2.93-7.07-2.93s-5.209,1.069-7.07,2.93c-1.86,1.86-2.93,4.44-2.93,7.07
			s1.07,5.21,2.93,7.069c1.86,1.86,4.44,2.931,7.07,2.931s5.21-1.07,7.07-2.931c1.86-1.859,2.93-4.439,2.93-7.069
			S153.43,210.79,151.57,208.93z"/>
	</g>
</g>
<g>
	<g>
		<path d="M482,0H84C67.458,0,54,13.458,54,30v166c0,16.542,13.458,30,30,30h18c5.523,0,10-4.478,10-10c0-5.522-4.477-10-10-10H84
			c-5.514,0-10-4.486-10-10V30c0-5.514,4.486-10,10-10h398c5.514,0,10,4.486,10,10v166c0,5.514-4.486,10-10,10h-66.887
			c-2.652,0-5.196,1.054-7.071,2.929l-32.929,32.929l-32.929-32.929c-1.875-1.875-4.419-2.929-7.071-2.929h-77.985
			c-0.735-1.888-1.566-3.751-2.507-5.579c-7.16-13.911-19.348-24.078-34.316-28.629l-14.458-4.396
			c-5.09-1.55-10.502,1.162-12.312,6.165l-22.718,62.789c-6.301,17.415-18.729,31.883-34.993,40.74l-21.326,11.612
			c-5.241-6.362-13.176-10.425-22.043-10.425h-63.9c-15.744,0-28.552,12.809-28.552,28.553v176.616
			C0.001,499.191,12.81,512,28.554,512h63.9c9.954,0,18.729-5.123,23.841-12.868l10.204,4.002
			c15.002,5.885,30.781,8.868,46.898,8.868h134.928c20.245,0,36.715-16.47,36.715-36.715c0-6.701-1.813-12.983-4.962-18.396
			c14.894-4.681,25.729-18.615,25.729-35.034c0-6.871-1.902-13.305-5.2-18.81c14.26-5.044,24.506-18.655,24.506-34.621
			c0-16.63-11.118-30.705-26.308-35.203c3.089-5.376,4.865-11.597,4.865-18.229c0-20.244-16.47-36.715-36.715-36.715h-80.188
			l11.214-33.294c2.096-6.224,3.088-12.624,3.02-18.984h69.97l37.071,37.071c1.953,1.952,4.512,2.929,7.071,2.929
			s5.119-0.977,7.071-2.929L419.256,226H482c16.542,0,30-13.458,30-30V30C512,13.458,498.542,0,482,0z M101.007,483.447
			c-0.001,4.716-3.837,8.553-8.553,8.553h-63.9c-4.716,0-8.552-3.837-8.552-8.553V306.831c0-4.716,3.836-8.553,8.552-8.553h21.95
			v123.121c0,5.522,4.477,10,10,10c5.523,0,10-4.478,10-10V298.278h21.95c3.735,0,6.91,2.411,8.073,5.755
			c0.083,0.484,0.203,0.964,0.361,1.439c0.071,0.444,0.119,0.895,0.119,1.359V483.447z M326.956,298.277v0.001
			c9.217,0,16.715,7.498,16.715,16.715c0,9.217-7.498,16.716-16.715,16.716h-54.251c-5.523,0-10,4.478-10,10c0,5.522,4.477,10,10,10
			l75.694,0.002c9.217,0,16.715,7.498,16.715,16.715c0,9.217-7.498,16.716-16.715,16.716h-75.694c-5.523,0-10,4.478-10,10
			c0,5.522,4.477,10,10,10h56.388c9.217,0,16.715,7.498,16.715,16.715c0,9.217-7.498,16.715-16.715,16.715h-56.388
			c-5.523,0-10,4.478-10,10c0,5.522,4.477,10,10,10h35.621c9.217,0,16.715,7.499,16.715,16.716c0,9.217-7.498,16.715-16.715,16.715
			H173.397c-13.607,0-26.929-2.52-39.596-7.487l-12.795-5.018V307.931l24.381-13.276c20.561-11.196,36.27-29.485,44.235-51.5
			l19.489-53.862l5.376,1.634c9.75,2.965,17.688,9.587,22.352,18.647s5.441,19.369,2.188,29.026l-15.657,46.485
			c-1.028,3.052-0.523,6.412,1.355,9.026c1.879,2.615,4.901,4.166,8.122,4.166H326.956z"/>
	</g>
</g>
<g>
	<g>
		<path d="M466.201,96.976c-1.894-5.824-6.836-9.989-12.898-10.868l-17.688-2.565L427.7,67.518
			c-2.712-5.491-8.199-8.901-14.323-8.901c0,0-0.003,0-0.004,0c-6.125,0.002-11.613,3.415-14.322,8.908l-7.906,16.03l-17.688,2.575
			c-6.061,0.883-11.001,5.05-12.892,10.876c-1.891,5.825-0.341,12.1,4.047,16.375l12.802,12.472l-3.017,17.617
			c-1.034,6.038,1.402,12.023,6.359,15.623c2.8,2.033,6.074,3.065,9.372,3.065c2.54,0,5.094-0.613,7.453-1.854l15.819-8.322
			l15.823,8.313c5.422,2.848,11.868,2.381,16.823-1.221c4.954-3.602,7.387-9.589,6.35-15.626l-3.026-17.615l12.797-12.48
			C466.548,109.075,468.095,102.8,466.201,96.976z M433.888,112.993c-3.765,3.671-5.48,8.958-4.59,14.141l2.003,11.662
			l-10.479-5.506c-4.656-2.442-10.213-2.442-14.864,0.006l-10.473,5.51l1.997-11.663c0.888-5.185-0.831-10.471-4.598-14.14
			l-8.477-8.258l11.711-1.705c5.205-0.757,9.7-4.025,12.025-8.741l5.235-10.613l5.24,10.61c2.329,4.715,6.826,7.98,12.03,8.735
			l11.711,1.698L433.888,112.993z"/>
	</g>
</g>
<g>
	<g>
		<path d="M338.988,96.976c-1.895-5.824-6.836-9.988-12.898-10.868l-17.688-2.565l-7.915-16.025
			c-2.712-5.491-8.199-8.901-14.323-8.901c-0.001,0-0.003,0-0.004,0c-6.125,0.002-11.614,3.415-14.323,8.909l-7.905,16.029
			l-17.688,2.575c-6.061,0.883-11.001,5.05-12.892,10.876c-1.891,5.825-0.341,12.1,4.047,16.375l12.802,12.472l-3.017,17.617
			c-1.034,6.038,1.403,12.024,6.359,15.623c2.799,2.033,6.074,3.065,9.371,3.065c2.54,0,5.093-0.613,7.452-1.854l15.819-8.322
			l15.824,8.313c5.423,2.848,11.867,2.381,16.823-1.221c4.954-3.602,7.387-9.589,6.35-15.626l-3.026-17.615l12.797-12.48
			C339.336,109.075,340.883,102.801,338.988,96.976z M306.675,112.993c-3.765,3.671-5.48,8.958-4.59,14.141l2.003,11.662
			l-10.479-5.505c-4.657-2.445-10.214-2.442-14.865,0.005l-10.473,5.51l1.997-11.663c0.888-5.185-0.831-10.471-4.598-14.14
			l-8.477-8.258l11.71-1.705c5.204-0.757,9.699-4.024,12.027-8.742l5.234-10.613l5.239,10.609c2.328,4.716,6.826,7.982,12.031,8.737
			l11.711,1.698L306.675,112.993z"/>
	</g>
</g>
<g>
	<g>
		<path d="M211.776,96.976c-1.895-5.824-6.837-9.989-12.898-10.868l-17.688-2.565l-7.915-16.025
			c-2.712-5.491-8.199-8.901-14.323-8.901c-0.001,0-0.003,0-0.004,0c-6.125,0.002-11.614,3.415-14.323,8.909l-7.905,16.029
			l-17.688,2.575c-6.062,0.883-11.001,5.051-12.893,10.877c-1.891,5.825-0.34,12.1,4.047,16.374l12.802,12.472l-3.017,17.617
			c-1.034,6.038,1.403,12.024,6.359,15.623c2.799,2.033,6.074,3.065,9.371,3.065c2.54,0,5.093-0.613,7.452-1.854l15.819-8.322
			l15.823,8.313c5.422,2.848,11.868,2.381,16.823-1.221c4.954-3.602,7.387-9.589,6.35-15.626l-3.026-17.615l12.797-12.48
			C212.124,109.075,213.67,102.801,211.776,96.976z M179.463,112.993c-3.765,3.671-5.48,8.958-4.59,14.141l2.003,11.662
			l-10.479-5.505c-4.656-2.445-10.215-2.442-14.865,0.005l-10.473,5.51l1.998-11.666c0.886-5.183-0.833-10.467-4.599-14.137
			l-8.477-8.258l11.71-1.705c5.204-0.757,9.699-4.024,12.027-8.742l5.234-10.613l5.239,10.609c2.328,4.716,6.826,7.982,12.031,8.737
			l11.712,1.698L179.463,112.993z"/>
	</g>
</g>
<g>
	<g>
		<path d="M60.504,447.359c-5.523,0-10,4.478-10,10v0.156c0,5.522,4.477,10,10,10c5.523,0,10-4.478,10-10v-0.156
			C70.504,451.837,66.027,447.359,60.504,447.359z"/>
	</g>
</g>
<g>
</g>
<g>
</g>
<g>
</g>
<g>
</g>
<g>
</g>
<g>
</g>
<g>
</g>
<g>
</g>
<g>
</g>
<g>
</g>
<g>
</g>
<g>
</g>
<g>
</g>
<g>
</g>
<g>
</g>
</svg>
